<svg width="182" height="80" viewBox="0 0 182 80" fill="none" xmlns="http://www.w3.org/2000/svg">
<path fill-rule="evenodd" clip-rule="evenodd" d="M72.9192 9.15798C74.0227 6.8427 76.3589 5.3681 78.9237 5.3681L91.3834 5.3681C93.6292 5.3681 95.7233 6.50137 96.9517 8.38145C97.2273 8.80322 97.4509 9.2498 97.6219 9.71205C99.5828 8.19895 102.007 7.13969 104.91 7.13969L129.691 7.13969C132.866 7.13969 135.374 8.40344 137.242 10.2282C139.309 8.43949 141.945 7.13969 145.171 7.13969L169.93 7.13969C174.928 7.13969 178.29 10.2549 180.102 13.8071C180.114 13.8299 180.125 13.8528 180.137 13.8758C181.405 16.4336 181.954 19.1942 181.954 22.0053C181.954 22.9538 181.894 23.9113 181.783 24.8729C181.78 24.898 181.777 24.9231 181.774 24.9481L177.44 59.0195C176.942 62.8733 175.604 66.4438 173.268 69.5104L173.246 69.5386C170.986 72.4737 167.576 75.1366 162.965 75.1366L138.206 75.1366C136.279 75.1366 134.593 74.6758 133.145 73.9036C132.052 74.6826 130.717 75.1366 129.287 75.1366H91.3834C89.473 75.1366 87.6549 74.3152 86.3921 72.8817C85.1294 71.4482 84.544 69.5409 84.785 67.6458L87.5674 45.7699C87.9539 42.7495 88.9834 39.5281 91.1337 37.0565C91.0816 37.0012 91.0303 36.945 90.9799 36.8878C90.0625 35.8469 89.5023 34.5559 89.3566 33.2012L70.5846 76.0026C69.5241 78.4207 67.1336 79.9825 64.4932 79.9826L49.7036 79.9826C47.4207 79.9826 45.2973 78.8118 44.0788 76.8813C43.695 76.2732 43.4179 75.6166 43.249 74.9378C43.1117 74.9463 42.9734 74.9506 42.8341 74.9506H26.441C24.5298 74.9506 22.711 74.1286 21.4483 72.694C20.4865 71.6015 19.9181 70.2341 19.8088 68.8067H9.36835C7.4572 68.8067 5.63839 67.9847 4.37562 66.5501C3.11285 65.1156 2.52814 63.2072 2.77056 61.3115L3.55625 55.1676C3.6665 54.3055 3.94464 53.4733 4.37497 52.7182L28.54 10.3121C29.7231 8.23575 31.9292 6.95374 34.319 6.95374L49.7991 6.95374C51.71 6.95374 53.5286 7.77559 54.7913 9.20979C56.0541 10.644 56.639 12.552 56.397 14.4475L52.4887 45.0637C52.6232 45.1925 52.7527 45.3275 52.8769 45.4683C53.5714 46.2559 54.0613 47.1867 54.3219 48.1801L72.9192 9.15798ZM43.6198 62.1552H46.3378L47.8879 49.8675H45.1699L49.7991 13.6053L34.319 13.6053L10.154 56.0114L9.36835 62.1552L27.2267 62.1552L26.441 68.2991H42.8341L43.6198 62.1552ZM30.2845 38.2141L28.798 49.8675L23.638 49.8675L30.2845 38.2141ZM49.7036 73.3311L78.9237 12.0196L91.3834 12.0196L64.4932 73.331L49.7036 73.3311ZM97.0318 24.1089L95.97 32.49H112.363L112.66 30.0858C112.677 29.9591 112.696 29.8345 112.719 29.712C112.729 29.6557 112.74 29.5999 112.752 29.5446C112.76 29.5048 112.769 29.4652 112.778 29.4259C112.784 29.402 112.789 29.3782 112.795 29.3545C112.803 29.3199 112.812 29.2854 112.821 29.2511C112.948 28.7601 113.129 28.306 113.364 27.8889C113.38 27.8609 113.396 27.8331 113.412 27.8054C113.519 27.6234 113.637 27.4486 113.765 27.281C114.359 26.4796 115.01 26.079 115.718 26.079C116.426 26.079 116.985 26.4685 117.396 27.2476C117.693 27.8487 117.842 28.5165 117.842 29.2511C117.842 29.5182 117.82 29.7964 117.778 30.0858L117.544 31.8555C117.521 32.0545 117.487 32.2395 117.442 32.4107C117.376 32.6664 117.287 32.8912 117.175 33.0849C116.958 33.4579 116.657 33.7159 116.27 33.859L98.412 39.9361C96.0479 40.7374 94.6323 42.9635 94.1651 46.6142L91.3834 68.485L129.287 68.485L130.859 56.1973L109.348 56.1973L110.07 50.4541C110.115 50.109 110.188 49.8062 110.289 49.5458C110.508 48.9831 110.86 48.6181 111.344 48.4507L129.223 42.3402C131.588 41.5611 133.003 39.335 133.47 35.6621L134.936 24.1089C134.947 24.0115 134.958 23.9145 134.968 23.8179C134.968 23.8164 134.968 23.8148 134.969 23.8133C135.031 23.2053 135.063 22.6137 135.063 22.0387C135.063 20.0798 134.681 18.3435 133.916 16.8298C133.665 16.3363 133.391 15.9029 133.094 15.5296C132.174 14.3707 131.04 13.7912 129.691 13.7912L104.91 13.7912C103.112 13.7912 101.434 14.8041 99.8772 16.8298C98.3342 18.8554 97.3857 21.2818 97.0318 24.1089ZM132.961 58.1673C132.862 58.9242 132.812 59.6477 132.812 60.3377C132.812 62.2744 133.194 63.9773 133.959 65.4465C134.535 66.5912 135.237 67.4124 136.066 67.9103C136.704 68.2935 137.418 68.485 138.206 68.485H162.965C164.763 68.485 166.434 67.4833 167.977 65.4799C169.52 63.4542 170.475 61.0167 170.843 58.1673L175.175 24.1089C175.26 23.3743 175.303 22.6731 175.303 22.0053C175.303 20.0686 174.927 18.3435 174.177 16.8298C173.144 14.8041 171.728 13.7912 169.93 13.7912L145.171 13.7912C143.607 13.7912 142.143 14.5454 140.78 16.0539C140.564 16.2935 140.35 16.5521 140.138 16.8298C138.986 18.3426 138.165 20.0789 137.676 22.0387C137.51 22.7031 137.382 23.3932 137.293 24.1089L135.786 35.9557L132.961 58.1673ZM154.089 55.0286C154.54 54.4522 154.862 53.7844 155.057 53.0252C155.066 52.99 155.074 52.9546 155.083 52.919C155.091 52.8871 155.098 52.855 155.105 52.8228C155.116 52.7721 155.127 52.7211 155.137 52.6697C155.139 52.6613 155.141 52.6529 155.142 52.6445C155.171 52.4963 155.195 52.345 155.215 52.1904L158.018 30.0858C158.06 29.7964 158.081 29.5182 158.081 29.2511C158.081 28.5165 157.933 27.8487 157.635 27.2476C157.225 26.4685 156.673 26.079 155.979 26.079C155.271 26.079 154.62 26.4796 154.026 27.281C153.589 27.8536 153.274 28.5102 153.082 29.2511C153.073 29.2864 153.064 29.3219 153.055 29.3576C153.047 29.3895 153.04 29.4215 153.033 29.4537C153.027 29.48 153.021 29.5064 153.015 29.5328C153.004 29.588 152.993 29.6436 152.982 29.6996C152.959 29.8261 152.938 29.9548 152.921 30.0858L150.199 51.5525L150.199 51.5544L150.118 52.1904C150.076 52.4798 150.055 52.7581 150.055 53.0252C150.055 53.782 150.203 54.4499 150.501 55.0286C150.897 55.8077 151.449 56.1973 152.157 56.1973C152.851 56.1973 153.495 55.8077 154.089 55.0286Z" fill="#950E0E"/>
<path fill-rule="evenodd" clip-rule="evenodd" d="M70.2478 3.80739C71.3513 1.49212 73.6875 0.0175171 76.2523 0.0175171L88.712 0.0175171C90.9578 0.0175171 93.0519 1.15079 94.2803 3.03086C94.5559 3.45263 94.7795 3.89921 94.9505 4.36146C96.9114 2.84836 99.3356 1.7891 102.238 1.7891L127.019 1.7891C130.195 1.7891 132.702 3.05285 134.571 4.87764C136.638 3.08891 139.274 1.7891 142.499 1.7891L167.259 1.7891C172.256 1.7891 175.619 4.90432 177.431 8.45648C177.442 8.47932 177.454 8.50223 177.465 8.52521C178.733 11.083 179.283 13.8436 179.283 16.6547C179.283 17.6033 179.222 18.5607 179.111 19.5223C179.108 19.5474 179.105 19.5725 179.102 19.5976L174.769 53.6689C174.271 57.5227 172.932 61.0932 170.596 64.1598L170.575 64.188C168.314 67.1231 164.905 69.786 160.294 69.786L135.534 69.786C133.608 69.786 131.922 69.3252 130.474 68.5531C129.381 69.332 128.046 69.786 126.616 69.786H88.712C86.8016 69.786 84.9835 68.9646 83.7207 67.5311C82.458 66.0976 81.8726 64.1903 82.1136 62.2952L84.896 40.4193C85.2825 37.3989 86.312 34.1775 88.4624 31.7059C88.4102 31.6506 88.3589 31.5944 88.3085 31.5372C87.3911 30.4963 86.831 29.2054 86.6852 27.8506L67.9132 70.652C66.8527 73.0701 64.4622 74.632 61.8218 74.632L47.0322 74.632C44.7493 74.632 42.6259 73.4612 41.4074 71.5307C41.0236 70.9227 40.7465 70.266 40.5776 69.5872C40.4403 69.5957 40.302 69.6 40.1627 69.6H23.7696C21.8584 69.6 20.0396 68.778 18.7769 67.3434C17.8151 66.2509 17.2467 64.8835 17.1374 63.4562H6.69696C4.78581 63.4562 2.967 62.6341 1.70423 61.1996C0.441462 59.765 -0.143246 57.8566 0.0991779 55.9609L0.884859 49.817C0.995109 48.9549 1.27326 48.1227 1.70358 47.3676L25.8686 4.96149C27.0518 2.88517 29.2579 1.60316 31.6476 1.60316L47.1277 1.60316C49.0386 1.60316 50.8572 2.425 52.1199 3.85921C53.3827 5.29342 53.9676 7.20144 53.7256 9.09695L49.8173 39.7131C49.9518 39.8419 50.0813 39.9769 50.2055 40.1177C50.9 40.9053 51.3899 41.8361 51.6505 42.8295L70.2478 3.80739ZM40.9484 56.8046H43.6664L45.2166 44.5169H42.4985L47.1277 8.25467L31.6476 8.25467L7.48264 50.6608L6.69696 56.8046L24.5553 56.8046L23.7696 62.9485H40.1627L40.9484 56.8046ZM27.6131 32.8636L26.1266 44.5169L20.9666 44.5169L27.6131 32.8636ZM47.0322 67.9805L76.2523 6.66903L88.712 6.66903L61.8218 67.9805L47.0322 67.9805ZM94.3604 18.7583L93.2986 27.1394L109.692 27.1394L109.989 24.7352C110.005 24.6085 110.025 24.4839 110.048 24.3614C110.058 24.3051 110.069 24.2493 110.081 24.194C110.089 24.1542 110.098 24.1146 110.107 24.0753C110.112 24.0514 110.118 24.0276 110.123 24.0039C110.132 23.9693 110.141 23.9348 110.149 23.9005C110.277 23.4095 110.458 22.9554 110.693 22.5384C110.709 22.5103 110.725 22.4825 110.741 22.4548C110.848 22.2728 110.965 22.098 111.093 21.9304C111.688 21.1291 112.339 20.7284 113.047 20.7284C113.755 20.7284 114.314 21.1179 114.724 21.897C115.022 22.4981 115.17 23.1659 115.17 23.9005C115.17 24.1676 115.149 24.4459 115.107 24.7352L114.873 26.5049C114.849 26.7039 114.815 26.8889 114.771 27.0601C114.705 27.3158 114.615 27.5406 114.503 27.7343C114.287 28.1073 113.986 28.3653 113.599 28.5084L95.7406 34.5855C93.3765 35.3869 91.9609 37.6129 91.4937 41.2636L88.712 63.1345L126.616 63.1345L128.187 50.8467L106.676 50.8467L107.398 45.1035C107.443 44.7584 107.516 44.4556 107.618 44.1952C107.837 43.6325 108.189 43.2675 108.673 43.1001L126.552 36.9896C128.916 36.2105 130.332 33.9844 130.799 30.3115L132.264 18.7583C132.276 18.6609 132.287 18.5639 132.297 18.4673C132.297 18.4658 132.297 18.4643 132.297 18.4627C132.36 17.8547 132.392 17.2631 132.392 16.6881C132.392 14.7292 132.009 12.9929 131.245 11.4792C130.993 10.9857 130.719 10.5523 130.423 10.179C129.503 9.02009 128.368 8.44062 127.019 8.44062L102.238 8.44062C100.441 8.44062 98.763 9.45347 97.2058 11.4792C95.6628 13.5049 94.7143 15.9313 94.3604 18.7583ZM130.289 52.8168C130.19 53.5736 130.141 54.2971 130.141 54.9872C130.141 56.9238 130.523 58.6267 131.287 60.0959C131.863 61.2406 132.566 62.0618 133.395 62.5597C134.033 62.9429 134.746 63.1345 135.534 63.1345H160.294C162.092 63.1345 163.762 62.1327 165.305 60.1293C166.848 58.1036 167.804 55.6661 168.172 52.8168L172.504 18.7583C172.589 18.0237 172.631 17.3225 172.631 16.6547C172.631 14.7181 172.256 12.9929 171.506 11.4792C170.472 9.45347 169.057 8.44062 167.259 8.44062L142.499 8.44062C140.936 8.44062 139.472 9.19485 138.109 10.7033C137.892 10.9429 137.678 11.2015 137.467 11.4792C136.314 12.992 135.494 14.7283 135.004 16.6881C134.839 17.3525 134.711 18.0426 134.621 18.7583L133.114 30.6051L130.289 52.8168ZM151.418 49.678C151.868 49.1016 152.191 48.4338 152.385 47.6746C152.394 47.6394 152.403 47.604 152.412 47.5684C152.419 47.5365 152.427 47.5044 152.434 47.4722C152.445 47.4215 152.456 47.3705 152.466 47.3191C152.467 47.3107 152.469 47.3023 152.471 47.2939C152.499 47.1458 152.524 46.9944 152.543 46.8398L155.346 24.7352C155.389 24.4459 155.41 24.1676 155.41 23.9005C155.41 23.1659 155.261 22.4981 154.964 21.897C154.553 21.1179 154.001 20.7284 153.308 20.7284C152.6 20.7284 151.949 21.1291 151.354 21.9304C150.917 22.503 150.603 23.1596 150.41 23.9005C150.401 23.9358 150.392 23.9713 150.384 24.007C150.376 24.0389 150.368 24.0709 150.361 24.1031C150.355 24.1294 150.35 24.1558 150.344 24.1823C150.332 24.2374 150.321 24.293 150.311 24.349C150.287 24.4755 150.267 24.6042 150.25 24.7352L147.528 46.2019L147.528 46.2038L147.447 46.8398C147.404 47.1292 147.383 47.4075 147.383 47.6746C147.383 48.4315 147.532 49.0993 147.829 49.678C148.226 50.4572 148.778 50.8467 149.485 50.8467C150.179 50.8467 150.823 50.4572 151.418 49.678Z" fill="#C61515"/>
<g filter="url(#filter0_f_290_4100)">
<path d="M76.2502 6.66949L88.7099 6.66949L61.8197 67.9809L47.0301 67.9809L76.2502 6.66949Z" fill="#372F2F"/>
<path d="M127.017 8.44108C128.801 8.44108 130.209 9.45393 131.243 11.4796C132.007 12.9933 132.389 14.7296 132.389 16.6886C132.389 17.3564 132.347 18.0465 132.262 18.7588L130.797 30.3119C130.33 33.9849 128.914 36.211 126.55 36.9901L108.67 43.1005C107.963 43.3454 107.538 44.0132 107.396 45.104L106.674 50.8472L128.185 50.8472L126.614 63.1349L88.7099 63.1349L91.4916 41.2641C91.9588 37.6134 93.3744 35.3873 95.7385 34.5859L113.597 28.5088C114.319 28.2417 114.744 27.5739 114.871 26.5054L115.104 24.7357C115.147 24.4463 115.168 24.1681 115.168 23.9009C115.168 23.1663 115.02 22.4985 114.722 21.8975C114.312 21.1184 113.753 20.7288 113.045 20.7288C112.337 20.7288 111.686 21.1295 111.091 21.9309C110.497 22.71 110.129 23.6449 109.987 24.7357L109.69 27.1398H93.2965L94.3583 18.7588C94.7122 15.9317 95.6607 13.5053 97.2037 11.4796C98.7609 9.45393 100.438 8.44108 102.236 8.44108L127.017 8.44108Z" fill="#372F2F"/>
<path d="M142.497 8.44108L167.257 8.44108C169.055 8.44108 170.47 9.45393 171.504 11.4796C172.254 12.9933 172.629 14.7185 172.629 16.6552C172.629 17.323 172.587 18.0242 172.502 18.7588L168.17 52.8172C167.802 55.6666 166.846 58.1041 165.303 60.1298C163.76 62.1332 162.09 63.1349 160.292 63.1349H135.532C133.72 63.1349 132.305 62.1221 131.285 60.0964C130.521 58.6272 130.139 56.9243 130.139 54.9876C130.139 54.2975 130.188 53.5741 130.287 52.8172L134.619 18.7588C134.973 15.9317 135.922 13.5053 137.465 11.4796C139.008 9.45393 140.685 8.44108 142.497 8.44108ZM153.306 20.7288C152.598 20.7288 151.947 21.1295 151.352 21.9309C150.757 22.71 150.389 23.6449 150.248 24.7357L147.445 46.8403C147.402 47.1297 147.381 47.4079 147.381 47.6751C147.381 48.4319 147.53 49.0997 147.827 49.6785C148.223 50.4576 148.776 50.8472 149.483 50.8472C150.177 50.8472 150.821 50.4576 151.416 49.6785C152.024 48.8994 152.4 47.9533 152.541 46.8403L155.344 24.7357C155.387 24.4463 155.408 24.1681 155.408 23.9009C155.408 23.1663 155.259 22.4985 154.962 21.8975C154.551 21.1184 153.999 20.7288 153.306 20.7288Z" fill="#372F2F"/>
<path d="M31.6455 8.25514L47.1256 8.25514L42.4964 44.5174H45.2144L43.6643 56.8051H40.9463L40.1606 62.949L23.7675 62.949L24.5531 56.8051H6.69482L7.48051 50.6612L31.6455 8.25514ZM26.1245 44.5174L27.6109 32.864L20.9645 44.5174H26.1245Z" fill="#372F2F"/>
</g>
<g filter="url(#filter1_i_290_4100)">
<path d="M76.2482 6.66949L88.7079 6.66949L61.8177 67.9809L47.0281 67.9809L76.2482 6.66949Z" fill="white"/>
<path d="M127.015 8.44108C128.799 8.44108 130.207 9.45393 131.241 11.4796C132.005 12.9933 132.388 14.7297 132.388 16.6886C132.388 17.3564 132.345 18.0465 132.26 18.7588L130.795 30.3119C130.328 33.9849 128.912 36.211 126.548 36.9901L108.668 43.1006C107.961 43.3454 107.536 44.0132 107.394 45.104L106.672 50.8472L128.183 50.8472L126.612 63.1349L88.7079 63.1349L91.4896 41.2641C91.9568 37.6134 93.3724 35.3873 95.7366 34.5859L113.595 28.5089C114.317 28.2417 114.742 27.5739 114.869 26.5054L115.103 24.7357C115.145 24.4463 115.166 24.1681 115.166 23.9009C115.166 23.1663 115.018 22.4985 114.72 21.8975C114.31 21.1184 113.751 20.7288 113.043 20.7288C112.335 20.7288 111.684 21.1295 111.089 21.9309C110.495 22.71 110.127 23.6449 109.985 24.7357L109.688 27.1398H93.2946L94.3563 18.7588C94.7102 15.9317 95.6587 13.5053 97.2017 11.4796C98.759 9.45393 100.436 8.44108 102.234 8.44108L127.015 8.44108Z" fill="white"/>
<path d="M142.495 8.44108L167.255 8.44108C169.053 8.44108 170.468 9.45393 171.502 11.4796C172.252 12.9933 172.627 14.7185 172.627 16.6552C172.627 17.323 172.585 18.0242 172.5 18.7588L168.168 52.8172C167.8 55.6666 166.844 58.1041 165.301 60.1298C163.758 62.1332 162.088 63.1349 160.29 63.1349H135.53C133.718 63.1349 132.303 62.1221 131.283 60.0964C130.519 58.6272 130.137 56.9243 130.137 54.9876C130.137 54.2975 130.186 53.5741 130.285 52.8172L134.617 18.7588C134.971 15.9317 135.92 13.5053 137.463 11.4796C139.006 9.45393 140.683 8.44108 142.495 8.44108ZM153.304 20.7288C152.596 20.7288 151.945 21.1295 151.35 21.9309C150.755 22.71 150.387 23.6449 150.246 24.7357L147.443 46.8403C147.4 47.1297 147.379 47.4079 147.379 47.6751C147.379 48.4319 147.528 49.0997 147.825 49.6785C148.221 50.4576 148.774 50.8472 149.481 50.8472C150.175 50.8472 150.819 50.4576 151.414 49.6785C152.022 48.8994 152.398 47.9533 152.539 46.8403L155.342 24.7357C155.385 24.4463 155.406 24.1681 155.406 23.9009C155.406 23.1663 155.257 22.4985 154.96 21.8975C154.549 21.1184 153.997 20.7288 153.304 20.7288Z" fill="white"/>
<path d="M31.6436 8.25514L47.1236 8.25514L42.4945 44.5174H45.2125L43.6624 56.8051H40.9443L40.1586 62.949L23.7655 62.949L24.5512 56.8051H6.69287L7.47855 50.6612L31.6436 8.25514ZM26.1226 44.5174L27.609 32.864L20.9625 44.5174H26.1226Z" fill="white"/>
</g>
<defs>
<filter id="filter0_f_290_4100" x="3.89225" y="3.86692" width="171.539" height="66.9166" filterUnits="userSpaceOnUse" color-interpolation-filters="sRGB">
<feFlood flood-opacity="0" result="BackgroundImageFix"/>
<feBlend mode="normal" in="SourceGraphic" in2="BackgroundImageFix" result="shape"/>
<feGaussianBlur stdDeviation="1.40129" result="effect1_foregroundBlur_290_4100"/>
</filter>
<filter id="filter1_i_290_4100" x="6.69287" y="3.86692" width="165.934" height="64.114" filterUnits="userSpaceOnUse" color-interpolation-filters="sRGB">
<feFlood flood-opacity="0" result="BackgroundImageFix"/>
<feBlend mode="normal" in="SourceGraphic" in2="BackgroundImageFix" result="shape"/>
<feColorMatrix in="SourceAlpha" type="matrix" values="0 0 0 0 0 0 0 0 0 0 0 0 0 0 0 0 0 0 127 0" result="hardAlpha"/>
<feOffset dy="-2.80257"/>
<feGaussianBlur stdDeviation="1.40129"/>
<feComposite in2="hardAlpha" operator="arithmetic" k2="-1" k3="1"/>
<feColorMatrix type="matrix" values="0 0 0 0 0 0 0 0 0 0 0 0 0 0 0 0 0 0 0.24 0"/>
<feBlend mode="normal" in2="shape" result="effect1_innerShadow_290_4100"/>
</filter>
</defs>
</svg>
