<svg width="172" height="74" viewBox="0 0 172 74" fill="none" xmlns="http://www.w3.org/2000/svg">
<path d="M171.609 39.414C171.841 47.3768 169.6 55.2158 165.193 61.852C162.901 65.1074 159.919 67.8169 156.46 69.7871C153.001 71.7573 149.149 72.9397 145.18 73.2498C141.211 73.56 137.223 72.9902 133.5 71.5812C129.776 70.1723 126.41 67.9588 123.641 65.0989C122.566 67.2873 120.886 69.1209 118.799 70.3818C116.713 71.6426 114.308 72.2776 111.871 72.211H88.2923C84.946 72.2805 81.6662 71.2708 78.9383 69.3314C77.3714 68.2197 76.0951 66.7473 75.2172 65.0385C74.3392 63.3297 73.8854 61.4346 73.8941 59.5135C73.8941 55.6868 75.7687 51.8409 79.5954 47.7243L79.9433 47.3764C83.48 44.0136 84.6203 42.854 84.9682 42.4675C85.0068 42.4288 85.0262 42.3902 85.0648 42.3708C82.6102 41.8962 80.3508 40.706 78.5711 38.95L65.8929 63.3788C64.7595 65.8299 63.2463 68.0866 61.4091 70.0658C59.3331 72.1445 56.5197 73.3185 53.5819 73.332C51.7802 73.4001 49.9883 73.0377 48.3548 72.2747C46.7213 71.5117 45.2932 70.3702 44.1892 68.9449C39.6031 71.9491 34.2084 73.4799 28.7279 73.332C21.9386 73.5683 15.3245 71.1487 10.2904 66.587C6.60373 63.1131 4.12815 58.5486 3.22721 53.5638C2.32626 48.579 3.04743 43.4367 5.28481 38.8921C5.78534 37.8742 6.36702 36.8983 7.0242 35.9738C5.63927 33.1941 4.91817 30.1311 4.9176 27.0256C4.83203 23.8728 5.49919 20.745 6.86378 17.9016C8.22836 15.0582 10.2511 12.5809 12.7642 10.6753C17.3581 7.2276 22.9867 5.44226 28.7279 5.61175C34.4707 5.4291 40.1077 7.18555 44.7303 10.598C47.2411 12.5221 49.2598 15.0143 50.6204 17.87C51.9811 20.7258 52.645 23.8635 52.5576 27.0256C52.548 30.1385 51.8205 33.2072 50.4316 35.9931C51.0513 36.853 51.6068 37.7574 52.0937 38.6988C52.1129 38.7181 52.1129 38.7568 52.1324 38.7761L64.1921 15.5649C65.1022 13.7366 66.1692 11.9907 67.381 10.3468C68.4263 8.93246 69.7775 7.77242 71.3337 6.95315C72.8899 6.13389 74.6109 5.67654 76.3685 5.61523C78.1261 5.55392 79.8749 5.89022 81.4844 6.59906C83.0939 7.30789 84.5226 8.37096 85.6639 9.70898C89.9955 6.93344 95.054 5.50736 100.198 5.61175C106.314 5.483 112.243 7.72712 116.741 11.8736C118.41 13.4089 119.837 15.1877 120.974 17.1498C120.993 17.1305 120.993 17.1111 121.012 17.0918C123.503 13.5487 126.809 10.6563 130.652 8.65838C134.495 6.66045 138.761 5.61556 143.092 5.61176C147.423 5.60796 151.692 6.64537 155.538 8.63655C159.384 10.6277 162.696 13.5143 165.193 17.0531C169.582 23.6689 171.822 31.4777 171.609 39.414Z" fill="#59057D"/>
<path d="M169.136 34.4672C169.368 42.43 167.127 50.269 162.72 56.9052C160.428 60.1606 157.446 62.8701 153.987 64.8403C150.528 66.8106 146.676 67.9929 142.707 68.3031C138.738 68.6132 134.75 68.0434 131.027 66.6345C127.303 65.2255 123.937 63.0121 121.167 60.1521C120.093 62.3405 118.413 64.1742 116.326 65.435C114.239 66.6958 111.835 67.3308 109.398 67.2643H85.8192C82.4729 67.3337 79.1931 66.324 76.4652 64.3846C74.8983 63.2729 73.622 61.8005 72.744 60.0917C71.8661 58.3829 71.4122 56.4879 71.4209 54.5667C71.4209 50.7401 73.2956 46.8941 77.1223 42.7775L77.4701 42.4296C81.0069 39.0668 82.1472 37.9072 82.495 37.5207C82.5337 37.4821 82.553 37.4434 82.5917 37.4241C80.137 36.9494 77.8776 35.7592 76.0979 34.0033L63.4197 58.432C62.2863 60.8831 60.7731 63.1398 58.936 65.119C56.8599 67.1977 54.0465 68.3717 51.1087 68.3852C49.3071 68.4533 47.5152 68.0909 45.8816 67.3279C44.2481 66.5649 42.8201 65.4234 41.716 63.9981C37.13 67.0024 31.7352 68.5331 26.2548 68.3852C19.4654 68.6215 12.8514 66.2019 7.81724 61.6402C4.13059 58.1663 1.65501 53.6018 0.754063 48.617C-0.146883 43.6322 0.574288 38.4899 2.81166 33.9453C3.3122 32.9274 3.89388 31.9515 4.55105 31.027C3.16613 28.2474 2.44502 25.1843 2.44446 22.0788C2.35889 18.926 3.02605 15.7983 4.39063 12.9548C5.75522 10.1114 7.77791 7.63417 10.291 5.72853C14.8849 2.28083 20.5135 0.495486 26.2548 0.664972C31.9976 0.482319 37.6346 2.23878 42.2572 5.65122C44.768 7.57533 46.7866 10.0676 48.1473 12.9233C49.5079 15.779 50.1718 18.9167 50.0844 22.0788C50.0749 25.1917 49.3474 28.2604 47.9585 31.0463C48.5781 31.9062 49.1336 32.8106 49.6206 33.752C49.6398 33.7714 49.6398 33.81 49.6592 33.8293L61.719 10.6181C62.629 8.78981 63.696 7.04387 64.9079 5.39998C65.9532 3.98568 67.3043 2.82564 68.8605 2.00637C70.4167 1.18711 72.1378 0.729767 73.8954 0.668456C75.653 0.607144 77.4018 0.943446 79.0113 1.65228C80.6208 2.36111 82.0495 3.42418 83.1908 4.7622C87.5224 1.98666 92.5809 0.560585 97.7244 0.664972C103.841 0.536224 109.77 2.78035 114.268 6.92687C115.937 8.4621 117.364 10.2409 118.5 12.203C118.52 12.1837 118.52 12.1644 118.539 12.145C121.03 8.60193 124.336 5.70953 128.179 3.7116C132.021 1.71368 136.288 0.668782 140.619 0.664984C144.95 0.661185 149.219 1.69859 153.065 3.68977C156.911 5.68095 160.222 8.56755 162.72 12.1063C167.108 18.7221 169.349 26.5309 169.136 34.4672Z" fill="#8400BE"/>
<g filter="url(#filter0_f_290_3411)">
<path d="M8.10434 44.3965C8.09245 41.9573 8.65087 39.5492 9.73502 37.3642C10.8746 35.1088 12.6144 33.2116 14.7629 31.8814C13.5873 30.8726 12.5984 29.6648 11.8413 28.3133C10.7526 26.4183 10.1788 24.2715 10.1766 22.086C10.0941 20.1165 10.4898 18.1563 11.3299 16.3731C12.17 14.5898 13.4296 13.0366 15.0008 11.8461C18.2512 9.45832 22.2154 8.2434 26.2456 8.39987C30.2858 8.22518 34.2672 9.41588 37.5481 11.7801C39.1187 12.9846 40.3753 14.5506 41.2111 16.3448C42.0468 18.1391 42.4371 20.1086 42.3486 22.086C42.3289 24.2698 41.7542 26.4128 40.6783 28.3133C39.9586 29.6929 38.9602 30.908 37.7462 31.8814C39.8626 33.21 41.5872 35.0779 42.743 37.2934C43.8671 39.4911 44.4427 41.9281 44.4209 44.3965C44.4688 46.5772 44.046 48.7427 43.1812 50.7453C42.3165 52.7479 41.0302 54.5404 39.4099 56.0009C35.7927 59.2024 31.0711 60.8697 26.2456 60.6494C21.422 60.8714 16.703 59.1968 13.0983 55.9839C11.4853 54.5222 10.2048 52.7314 9.34323 50.7324C8.4817 48.7334 8.05922 46.5728 8.10434 44.3965V44.3965ZM19.7909 43.2046C19.7808 44.0569 19.9409 44.9025 20.2617 45.6922C20.5826 46.4818 21.0577 47.1994 21.6593 47.8031C22.245 48.4301 22.956 48.927 23.7461 49.2614C24.5362 49.5958 25.3878 49.7603 26.2456 49.7443C27.1047 49.7538 27.9569 49.5907 28.7518 49.2648C29.5467 48.9388 30.268 48.4567 30.8731 47.8468C31.4782 47.2369 31.9547 46.5118 32.2745 45.7144C32.5942 44.917 32.7506 44.0636 32.7344 43.2046C32.7504 42.3456 32.5949 41.492 32.277 40.6938C31.9591 39.8956 31.4851 39.1688 30.8829 38.556C30.2882 37.9279 29.568 37.4318 28.7691 37.1002C27.9701 36.7685 27.1104 36.6086 26.2457 36.6309C25.3923 36.6133 24.5444 36.7721 23.7552 37.0973C22.9661 37.4226 22.2525 37.9073 21.6594 38.5211C21.0469 39.1345 20.5655 39.8659 20.2443 40.671C19.9231 41.4761 19.7688 42.3381 19.7909 43.2046V43.2046ZM21.4555 22.9231C21.4567 23.5088 21.5814 24.0877 21.8214 24.622C22.0614 25.1563 22.4113 25.634 22.8484 26.024C23.2983 26.4599 23.8302 26.8021 24.4134 27.0308C24.9966 27.2596 25.6194 27.3702 26.2456 27.3565C27.4905 27.3568 28.688 26.8799 29.5919 26.024C30.0499 25.6458 30.4195 25.1719 30.6748 24.6357C30.9301 24.0994 31.0649 23.5138 31.0698 22.9198C31.0746 22.3259 30.9494 21.7382 30.7029 21.1978C30.4564 20.6574 30.0946 20.1776 29.6429 19.7919C28.7166 18.9538 27.512 18.4897 26.2627 18.4897C25.0135 18.4897 23.8088 18.9538 22.8825 19.7919C22.4316 20.1789 22.0703 20.6595 21.8239 21.2002C21.5774 21.7409 21.4517 22.3288 21.4555 22.9231V22.9231Z" fill="#372F2F"/>
<path d="M47.208 56.8791C47.3401 55.5429 47.7448 54.2479 48.397 53.0742C49.0539 51.8285 49.5408 50.8773 49.8579 50.2205L68.5767 14.1757C69.2687 12.7931 70.0637 11.4644 70.9548 10.2009C71.2861 9.68077 71.7359 9.24647 72.2673 8.93353C72.7987 8.62059 73.3967 8.4379 74.0122 8.40039C76.6168 8.40039 77.9191 9.64604 77.9191 12.1374C77.8515 13.1528 77.586 14.1453 77.1377 15.059C76.8659 15.7158 76.2431 16.9728 75.2692 18.8299L56.5504 54.8747C55.7723 56.5664 54.7665 58.1437 53.5609 59.5629C53.2459 59.8976 52.8674 60.1662 52.4474 60.3528C52.0274 60.5395 51.5744 60.6405 51.1149 60.65C48.5103 60.65 47.208 59.393 47.208 56.8791Z" fill="#372F2F"/>
<path d="M79.1526 54.5669C79.1526 52.8097 80.3605 50.6355 82.7763 48.0442C85.6272 45.3434 87.4365 43.5727 88.2044 42.7322C90.8155 39.8493 93.4157 36.9663 96.0048 34.0834C99.6946 29.566 101.54 26.2291 101.54 24.0728C101.601 23.4181 101.529 22.7579 101.328 22.1318C101.128 21.5057 100.802 20.9266 100.372 20.4293C99.4315 19.6227 98.2111 19.219 96.9749 19.3054C94.3147 19.3054 92.3613 21.0833 91.1147 24.639C89.869 28.1948 88.0241 29.9727 85.58 29.9727C84.8012 30.0216 84.0211 29.8994 83.2945 29.6148C82.5679 29.3301 81.9124 28.8899 81.374 28.3251C80.4093 27.2745 79.8821 25.8953 79.9 24.4692C79.8833 22.3235 80.329 20.1995 81.2067 18.2415C82.0844 16.2835 83.3736 14.5376 84.9864 13.1224C88.4544 9.94431 93.0283 8.24943 97.7298 8.40026C101.903 8.28711 105.958 9.79839 109.039 12.6157C110.551 13.9991 111.745 15.6941 112.539 17.5839C113.332 19.4737 113.706 21.5131 113.635 23.5614C113.557 26.8966 112.596 30.1514 110.849 32.9935C108.997 35.9761 106.858 38.7701 104.462 41.3356C100.165 46.0351 97.8377 48.6003 97.4788 49.0313H109.513C110.237 48.9924 110.96 49.1145 111.631 49.3888C112.302 49.6631 112.904 50.0828 113.393 50.6176C114.295 51.6285 114.792 52.9363 114.79 54.2908C114.787 55.6453 114.286 56.9515 113.381 57.9593C112.872 58.495 112.252 58.913 111.565 59.1841C110.878 59.4552 110.14 59.5728 109.402 59.5286H85.8083C84.1097 59.5962 82.4351 59.1107 81.0361 58.1452C80.4498 57.7519 79.9706 57.2189 79.6418 56.5942C79.313 55.9695 79.1449 55.2728 79.1526 54.5669V54.5669Z" fill="#372F2F"/>
<path d="M119.919 34.5082C119.699 28.1435 121.443 21.8651 124.913 16.5254C126.696 14.014 129.054 11.9659 131.79 10.5524C134.527 9.13884 137.561 8.40095 140.641 8.40039C143.721 8.39984 146.756 9.13664 149.493 10.5492C152.23 11.9618 154.588 14.009 156.372 16.5198C159.862 21.8482 161.618 28.1255 161.4 34.4912C161.63 40.869 159.873 47.1606 156.372 52.4966C154.595 55.0156 152.238 57.0709 149.502 58.4897C146.765 59.9086 143.727 60.6494 140.644 60.65C137.561 60.6506 134.523 59.9108 131.786 58.4929C129.049 57.0751 126.692 55.0206 124.913 52.5023C121.434 47.1622 119.69 40.8775 119.919 34.5082V34.5082ZM131.606 34.5082C131.512 37.9251 132.149 41.3226 133.475 44.4734C135.105 47.9877 137.495 49.7448 140.643 49.7448C142.23 49.7279 143.772 49.218 145.056 48.2857C146.341 47.3535 147.303 46.0449 147.811 44.5414C149.142 41.3674 149.79 37.949 149.713 34.5082C149.804 31.1102 149.155 27.7331 147.811 24.6109C146.18 21.0739 143.791 19.3055 140.643 19.3055C139.052 19.3253 137.507 19.8404 136.222 20.779C134.937 21.7177 133.977 23.0333 133.475 24.543C132.149 27.6938 131.512 31.0913 131.606 34.5082V34.5082Z" fill="#372F2F"/>
</g>
<g filter="url(#filter1_i_290_3411)">
<path d="M7.80161 44.086C7.78972 41.6468 8.34813 39.2387 9.43229 37.0537C10.5719 34.7983 12.3117 32.9011 14.4602 31.5709C13.2846 30.5621 12.2956 29.3544 11.5385 28.0029C10.4499 26.1078 9.87603 23.961 9.8739 21.7755C9.79137 19.806 10.1871 17.8458 11.0272 16.0626C11.8673 14.2793 13.1268 12.7261 14.698 11.5357C17.9485 9.14783 21.9127 7.93291 25.9429 8.08938C29.9831 7.9147 33.9644 9.1054 37.2453 11.4696C38.816 12.6742 40.0726 14.2401 40.9083 16.0344C41.7441 17.8286 42.1343 19.7981 42.0458 21.7755C42.0262 23.9594 41.4514 26.1023 40.3755 28.0029C39.6559 29.3825 38.6574 30.5975 37.4435 31.5709C39.5599 32.8995 41.2845 34.7674 42.4403 36.9829C43.5643 39.1806 44.14 41.6176 44.1182 44.086C44.1661 46.2668 43.7433 48.4322 42.8785 50.4348C42.0138 52.4374 40.7275 54.23 39.1072 55.6904C35.49 58.8919 30.7684 60.5592 25.9429 60.339C21.1193 60.5609 16.4003 58.8863 12.7955 55.6734C11.1825 54.2117 9.90203 52.4209 9.04049 50.4219C8.17896 48.4229 7.75649 46.2623 7.80161 44.086V44.086ZM19.4881 42.8941C19.4781 43.7464 19.6381 44.5921 19.959 45.3817C20.2798 46.1713 20.755 46.889 21.3566 47.4927C21.9423 48.1197 22.6532 48.6165 23.4433 48.9509C24.2335 49.2853 25.0851 49.4499 25.9429 49.4338C26.802 49.4433 27.6542 49.2802 28.449 48.9543C29.2439 48.6284 29.9653 48.1462 30.5704 47.5363C31.1755 46.9265 31.652 46.2014 31.9717 45.4039C32.2914 44.6065 32.4478 43.7531 32.4316 42.8941C32.4477 42.0351 32.2922 41.1815 31.9743 40.3833C31.6563 39.5851 31.1824 38.8583 30.5801 38.2455C29.9854 37.6174 29.2652 37.1214 28.4663 36.7897C27.6674 36.458 26.8077 36.2982 25.9429 36.3204C25.0895 36.3028 24.2417 36.4616 23.4525 36.7869C22.6633 37.1121 21.9498 37.5968 21.3566 38.2106C20.7442 38.824 20.2628 39.5554 19.9416 40.3605C19.6204 41.1656 19.4661 42.0276 19.4881 42.8941V42.8941ZM21.1528 22.6126C21.154 23.1983 21.2786 23.7772 21.5186 24.3115C21.7586 24.8458 22.1086 25.3235 22.5457 25.7135C22.9956 26.1494 23.5275 26.4916 24.1107 26.7203C24.6939 26.9491 25.3166 27.0598 25.9429 27.046C27.1877 27.0463 28.3853 26.5694 29.2892 25.7135C29.7471 25.3353 30.1167 24.8614 30.372 24.3252C30.6274 23.7889 30.7622 23.2033 30.767 22.6094C30.7719 22.0155 30.6467 21.4277 30.4002 20.8873C30.1537 20.3469 29.7919 19.8671 29.3402 19.4814C28.4139 18.6433 27.2092 18.1792 25.96 18.1792C24.7108 18.1792 23.5061 18.6433 22.5798 19.4814C22.1288 19.8684 21.7676 20.349 21.5211 20.8897C21.2747 21.4304 21.149 22.0183 21.1528 22.6126V22.6126Z" fill="white"/>
<path d="M47.2075 56.5694C47.3396 55.2332 47.7443 53.9382 48.3965 52.7645C49.0534 51.5188 49.5403 50.5676 49.8574 49.9108L68.5762 13.866C69.2682 12.4834 70.0632 11.1547 70.9543 9.8912C71.2857 9.37107 71.7354 8.93678 72.2668 8.62384C72.7982 8.3109 73.3962 8.1282 74.0118 8.0907C76.6163 8.0907 77.9186 9.33635 77.9186 11.8277C77.851 12.8431 77.5855 13.8356 77.1372 14.7493C76.8654 15.4061 76.2426 16.6631 75.2687 18.5202L56.5499 54.565C55.7718 56.2567 54.766 57.834 53.5604 59.2532C53.2455 59.5879 52.8669 59.8564 52.4469 60.0431C52.0269 60.2298 51.5739 60.3308 51.1144 60.3403C48.5098 60.3403 47.2075 59.0833 47.2075 56.5694Z" fill="#FECC00"/>
<path d="M78.8513 54.2553C78.8513 52.4982 80.0592 50.3239 82.4751 47.7326C85.3259 45.0318 87.1353 43.2611 87.9031 42.4206C90.5143 39.5377 93.1144 36.6547 95.7036 33.7718C99.3933 29.2544 101.239 25.9176 101.239 23.7612C101.3 23.1066 101.228 22.4463 101.027 21.8202C100.826 21.1941 100.501 20.615 100.071 20.1177C99.1302 19.3111 97.9098 18.9074 96.6737 18.9938C94.0134 18.9938 92.06 20.7717 90.8134 24.3275C89.5678 27.8832 87.7229 29.6611 85.2787 29.6611C84.4999 29.71 83.7198 29.5878 82.9933 29.3032C82.2667 29.0185 81.6112 28.5783 81.0728 28.0135C80.1081 26.9629 79.5808 25.5838 79.5987 24.1576C79.5821 22.012 80.0277 19.8879 80.9054 17.9299C81.7832 15.9719 83.0723 14.226 84.6852 12.8108C88.1531 9.63273 92.727 7.93784 97.4285 8.08868C101.602 7.97553 105.656 9.48681 108.738 12.3041C110.25 13.6875 111.444 15.3826 112.237 17.2723C113.031 19.1621 113.405 21.2015 113.333 23.2498C113.256 26.585 112.295 29.8399 110.548 32.6819C108.696 35.6645 106.557 38.4585 104.161 41.024C99.8641 45.7235 97.5364 48.2888 97.1775 48.7197H109.212C109.936 48.6808 110.659 48.8029 111.33 49.0773C112.001 49.3516 112.602 49.7712 113.092 50.306C113.993 51.3169 114.491 52.6247 114.488 53.9792C114.486 55.3338 113.984 56.6399 113.079 57.6477C112.571 58.1834 111.951 58.6014 111.264 58.8725C110.577 59.1436 109.838 59.2612 109.101 59.2171H85.507C83.8085 59.2846 82.1339 58.7992 80.7348 57.8336C80.1485 57.4404 79.6694 56.9073 79.3405 56.2826C79.0117 55.6579 78.8436 54.9612 78.8513 54.2553V54.2553Z" fill="white"/>
<path d="M119.617 34.1974C119.396 27.8327 121.14 21.5544 124.611 16.2147C126.393 13.7033 128.751 11.6552 131.488 10.2417C134.224 8.82811 137.259 8.09022 140.338 8.08966C143.418 8.08911 146.453 8.82591 149.19 10.2385C151.927 11.651 154.286 13.6983 156.069 16.209C159.559 21.5374 161.315 27.8148 161.097 34.1805C161.327 40.5582 159.57 46.8499 156.069 52.1859C154.292 54.7048 151.936 56.7602 149.199 58.179C146.462 59.5979 143.424 60.3387 140.341 60.3393C137.259 60.3398 134.221 59.6001 131.483 58.1822C128.746 56.7643 126.389 54.7099 124.611 52.1915C121.131 46.8515 119.387 40.5668 119.617 34.1974V34.1974ZM131.303 34.1974C131.209 37.6143 131.846 41.0119 133.172 44.1627C134.802 47.677 137.192 49.4341 140.34 49.4341C141.927 49.4172 143.469 48.9073 144.754 47.975C146.038 47.0427 147 45.7342 147.508 44.2306C148.839 41.0567 149.487 37.6382 149.411 34.1974C149.501 30.7994 148.852 27.4224 147.508 24.3001C145.878 20.7632 143.488 18.9948 140.34 18.9948C138.749 19.0146 137.204 19.5296 135.919 20.4683C134.634 21.407 133.674 22.7226 133.172 24.2323C131.847 27.3831 131.21 30.7806 131.303 34.1974V34.1974Z" fill="white"/>
</g>
<defs>
<filter id="filter0_f_290_3411" x="5.62398" y="5.90596" width="158.273" height="57.2401" filterUnits="userSpaceOnUse" color-interpolation-filters="sRGB">
<feFlood flood-opacity="0" result="BackgroundImageFix"/>
<feBlend mode="normal" in="SourceGraphic" in2="BackgroundImageFix" result="shape"/>
<feGaussianBlur stdDeviation="1.23855" result="effect1_foregroundBlur_290_3411"/>
</filter>
<filter id="filter1_i_290_3411" x="7.79834" y="5.59547" width="153.319" height="54.763" filterUnits="userSpaceOnUse" color-interpolation-filters="sRGB">
<feFlood flood-opacity="0" result="BackgroundImageFix"/>
<feBlend mode="normal" in="SourceGraphic" in2="BackgroundImageFix" result="shape"/>
<feColorMatrix in="SourceAlpha" type="matrix" values="0 0 0 0 0 0 0 0 0 0 0 0 0 0 0 0 0 0 127 0" result="hardAlpha"/>
<feOffset dy="-2.4771"/>
<feGaussianBlur stdDeviation="1.23855"/>
<feComposite in2="hardAlpha" operator="arithmetic" k2="-1" k3="1"/>
<feColorMatrix type="matrix" values="0 0 0 0 0 0 0 0 0 0 0 0 0 0 0 0 0 0 0.24 0"/>
<feBlend mode="normal" in2="shape" result="effect1_innerShadow_290_3411"/>
</filter>
</defs>
</svg>
