<svg width="101" height="46" viewBox="0 0 101 46" fill="none" xmlns="http://www.w3.org/2000/svg">
<path d="M67.2148 37.0557C67.2148 37.0557 68.3137 40.7488 75.3982 42.7953L79.3129 45.3077L81.8608 45.132L79.9708 43.0769C79.9708 43.0769 84.4478 41.2525 86.906 38.9398L91.1871 37.6961C91.1871 37.6961 84.1538 38.2967 80.4427 40.9738L77.8805 42.0995L71.2846 40.0435C71.2846 40.0435 68.3588 38.323 67.2148 37.0557Z" fill="#281F32"/>
<path d="M86.2695 20.084C86.2695 20.084 86.9474 22.3466 91.2925 23.5928L93.695 25.1284L95.2567 25.0177L94.0958 23.7601C94.0958 23.7601 96.838 22.6366 98.3421 21.2161L100.965 20.4488C100.965 20.4488 96.6544 20.8251 94.3826 22.4704L92.8133 23.1635L88.7677 21.9108C87.871 21.3945 87.0333 20.782 86.2695 20.084Z" fill="#281F32"/>
<path d="M69.9233 25.5752L68.2894 25.8465L63.0246 26.2406L65.2032 26.8332L63.6297 27.4257L60.3014 26.5432L56.5493 26.2406L53.7656 26.5432L56.4259 26.0032L60.0718 26.1178L61.1496 25.7278L64.7731 25.8465L69.9233 25.5752Z" fill="#281F32"/>
<path d="M20.6825 0L18.5909 0.347824L11.8521 0.852377L14.6404 1.61103L12.6263 2.36916L8.366 1.23977L3.56312 0.852377L0 1.23977L3.40534 0.548291L8.07233 0.695127L9.45218 0.195781L14.09 0.347824L20.6825 0Z" fill="#281F32"/>
<path d="M24.6797 16.6776L30.3251 17.843L36.0673 20.4865L36.9582 21.5389L38.2011 21.3988L38.374 20.1746L42.2099 16.8276L47.3294 16.083L41.7548 16.1523L37.6997 18.4537L35.6913 18.6006L30.7817 17.2072L24.6797 16.6776Z" fill="#281F32"/>
</svg>
