<svg width="262" height="68" viewBox="0 0 262 68" fill="none" xmlns="http://www.w3.org/2000/svg">
<path d="M82.9412 19.3982C83.4544 19.0116 83.9651 18.6152 84.4539 18.2181C85.8923 17.0498 87.449 16.0092 88.9598 14.9241C90.235 14.0083 90.5425 13.0868 91.2632 11.7487C91.5024 11.2344 91.8207 10.7606 92.2063 10.3446C92.4574 10.0909 92.7971 9.88647 93.0304 9.60493C93.6437 8.86482 93.8348 7.87165 94.4165 7.1054C94.9146 6.50855 95.3747 5.88089 95.7938 5.22616C97.26 2.72984 99.5488 0.678159 102.443 0.140142C105.608 -0.448215 108.406 1.00922 111.555 0.962918C112.857 0.871647 114.166 0.924005 115.457 1.11905C116.98 1.4354 118.541 2.38763 119.847 3.22735C121.378 4.21205 123.274 5.41228 124.066 7.10739C124.871 9.03227 125.368 11.0718 125.539 13.1511C125.76 15.182 126.155 17.0617 126.152 19.1126C126.15 19.8837 126.142 20.6558 126.149 21.4267C126.157 22.3145 126.356 22.5672 126.73 23.3516C127.202 24.3413 127.2 25.5469 128.093 26.2872C129.238 27.1444 130.634 27.6004 132.065 27.5849C132.848 27.5556 133.623 27.4089 134.362 27.1499C135.075 26.9563 135.277 26.9517 135.892 27.3896C136.416 27.7848 136.903 28.2264 137.348 28.709C137.727 29.0949 138.301 29.3806 138.582 29.8262C139.199 30.8051 139.116 32.2509 139.127 33.3386C139.144 35.0836 140.146 36.4218 141.018 37.8524C141.736 39.0295 141.66 40.2199 142.016 41.5105C142.388 42.8842 143.066 44.1562 143.998 45.2322C145.672 47.1348 148.236 46.9872 150.178 48.3388C152.098 49.6418 154.33 50.4101 156.645 50.565C158.177 50.6198 159.711 50.508 161.219 50.2317C162.544 50.0236 163.799 49.4934 164.872 48.6875C166.996 47.0776 168.129 44.6789 170.626 43.6222C172.775 42.7881 174.838 41.748 176.787 40.5163C177.613 39.8645 178.482 39.2695 179.388 38.7356C180.225 38.4174 181.093 38.1859 181.977 38.0449C184.188 37.5042 186.132 36.3138 188.317 35.662C189.415 35.3307 190.57 35.2301 191.71 35.3665C192.861 35.5083 193.444 36.048 194.273 36.8205C194.886 37.3379 195.53 37.8177 196.201 38.2574C197.022 38.8607 197.325 40.3552 197.719 41.2542C198.002 42.0519 198.404 42.8026 198.91 43.4811C199.623 44.1835 200.279 44.9406 200.874 45.7455C201.427 46.614 202.182 47.3347 203.076 47.8453C203.97 48.3558 204.975 48.6407 206.004 48.6752C206.891 48.7109 207.767 48.8804 208.604 49.178C209.392 49.4882 209.97 50.0733 210.825 50.2404C213.319 50.728 215.787 49.6889 218.038 51.3365C218.828 52.003 219.691 52.5779 220.611 53.0503C222.03 53.6689 223.574 53.9482 225.12 53.866C226.719 53.8524 228.457 53.6427 230.042 53.9162C231.18 54.1124 232.266 54.6449 233.411 54.8082C234.394 54.9486 235.017 54.9402 235.913 55.4426C236.845 55.9657 237.626 56.8854 238.415 57.5986C239.042 58.2235 239.808 58.691 240.65 58.9626C241.791 59.3887 242.414 60.4351 243.479 61.0117C245.018 61.8444 246.669 60.8939 248.26 61.0567C249.341 61.1738 250.406 61.4126 251.434 61.7685C252.41 62.0977 253.415 62.621 254.406 62.8753C255.724 63.2138 257.092 63.4716 258.437 63.6943C259.445 63.8613 260.925 63.7626 261.815 64.3191C261.834 65.0961 260.067 65.3995 259.518 65.5533C257.05 66.1515 254.528 66.5044 251.99 66.6067C248.126 66.8695 244.267 67.19 240.392 67.19C234.194 67.19 227.978 66.7587 221.784 66.5261C214.278 66.2443 206.783 65.8405 199.273 65.6267C189.576 65.3505 179.884 65.3827 170.189 65.1727C160.472 64.9622 150.827 64.14 141.096 64.2215C131.122 64.305 121.22 64.6268 111.248 64.1713C103.78 63.8302 96.2975 63.6742 88.8358 63.2559C81.8596 62.8649 74.9514 61.8062 67.9949 61.2158C58.3669 60.3986 48.6085 60.3538 38.9491 60.351C35.5817 60.35 32.2141 60.3427 28.8466 60.3498C25.868 60.3561 22.8556 60.4331 19.9007 59.9617C18.0198 59.6617 16.1942 59.1334 14.3014 58.8751C13.128 58.715 12.0751 58.768 10.9531 58.4099C14.1869 57.9456 17.1537 56.5099 20.3265 55.8071C22.1914 55.388 24.0326 54.87 25.8424 54.2553C27.2084 53.7984 28.7861 53.4613 29.9307 52.54C31.663 51.1458 31.9939 49.1711 33.2294 47.4896C34.2838 46.0545 36.237 45.5269 37.2427 44.0591C37.9244 42.9712 38.3857 41.7599 38.6004 40.4941C39.1178 37.9746 39.779 35.6616 41.1495 33.4363C42.9296 30.546 44.8407 27.9839 47.9891 26.551C49.847 25.7054 51.9592 25.3718 53.9428 24.9449C55.3687 24.6088 56.8533 24.611 58.2782 24.9513C60.5076 25.4711 62.8875 25.7636 64.9613 26.7595C66.4397 27.4695 67.6525 28.7464 69.2562 29.1332C70.1055 29.3992 70.9952 29.5126 71.884 29.4681C72.5535 29.3817 74.0303 29.2039 74.5845 28.819C74.9669 28.4511 75.2568 27.9979 75.4305 27.4964C75.705 26.9209 76.0675 26.3915 76.5049 25.9275C77.6293 24.6936 78.3748 23.2823 79.4086 22.009C79.6583 21.6932 79.9461 21.4094 80.2653 21.1642C80.8098 20.7569 81.449 20.497 82 20.0953C82.3118 19.868 82.627 19.6349 82.9412 19.3982Z" fill="url(#paint0_linear_3415_13319)"/>
<path d="M77.661 11.9683C77.9646 11.9031 78.26 11.8043 78.5419 11.6739C79.5949 11.1465 80.7772 10.9324 81.9483 11.057C85.7789 11.4101 88.8626 13.416 91.908 15.624C94.1904 17.3757 95.8223 19.8395 96.5447 22.6244C96.9393 24.3354 97.1665 26.0807 97.223 27.8356C97.1993 28.6467 97.1277 29.4556 97.0086 30.2581C96.979 30.9127 97.0225 31.5875 97.022 32.2437C97.021 33.5672 96.9502 34.9081 97.0103 36.2298C97.0567 37.251 97.1578 38.4193 97.8924 39.1666C98.3274 39.6759 98.8061 40.1462 99.3231 40.572C100.194 41.078 101.095 41.5322 102.02 41.9321C103.287 42.6206 104.682 43.0421 106.118 43.1705C107.137 43.2237 107.514 42.7814 108.275 42.1699C108.621 41.8544 109.04 41.6285 109.494 41.5119C109.948 41.3953 110.424 41.3916 110.88 41.5011C112.251 41.7012 113.543 41.9336 114.809 41.2122C115.533 40.799 116.007 40.1453 116.735 39.7356C117.637 39.1919 118.622 38.8011 119.65 38.5792C120.85 38.3484 122.568 37.6463 123.768 38.1244C125.189 38.6902 126.352 39.8327 127.584 40.7015C131.229 43.2709 129.732 48.3196 130.957 51.9463C131.362 53.148 132.374 53.853 133.343 54.5902C134.785 55.7504 136.368 56.7252 138.053 57.4919C139.337 58.0248 140.903 57.7533 142.257 57.7547C143.479 57.7204 144.702 57.7837 145.914 57.944C146.8 58.0834 147.709 57.8581 148.586 57.9807C149.106 58.0931 149.595 58.3213 150.015 58.6484C150.436 58.9755 150.777 59.393 151.014 59.8701C151.662 61.0871 152.236 62.3419 152.733 63.6277C153.288 64.9208 152.975 65.9586 151.691 66.6406C149.669 67.7149 147.105 67.1088 144.946 67.0367C140.135 66.8761 135.35 66.583 130.535 66.8933C123.813 67.3265 117.148 68.0019 110.403 68.0002C102.193 67.9452 93.9938 67.407 85.8471 66.3885C79.3621 65.6231 72.9926 64.045 66.6624 62.4793C61.444 61.1887 56.069 61.1349 50.7343 60.7763C46.0281 60.4599 41.3797 59.6816 36.6804 59.3071C32.4751 58.9719 28.3224 58.2252 24.1092 57.9847C19.8261 57.7375 15.5296 57.8582 11.2671 58.3455C9.61339 58.5341 8.00523 58.8824 6.36786 59.1715C4.96723 59.4602 3.54163 59.6107 2.11158 59.6207C1.40374 59.7536 0.672927 59.6881 0 59.4314C2.72777 58.5548 5.91492 57.9341 8.04504 55.913C9.40076 54.6267 9.96751 53.1783 10.3817 51.4237C10.4926 51.0173 10.7041 50.6455 10.9967 50.3425C11.9192 49.1925 12.7423 47.9663 13.4571 46.6769C13.9116 45.9651 14.2654 45.194 14.5085 44.3853C14.7771 43.4126 14.8373 42.4185 15.2257 41.4773C15.3744 41.0133 15.6126 40.583 15.9269 40.2108C16.4586 39.7139 17.413 39.5801 18.0379 39.238C18.7145 38.8946 19.3334 38.4478 19.8723 37.9137C20.7589 36.9786 21.0053 35.9687 21.3362 34.7457C22.0996 31.8437 23.7213 29.2397 25.9891 27.2746C27.0073 26.3684 28.243 25.7416 29.5756 25.4554C31.3684 25.1434 33.182 24.9659 35.0012 24.9244C40.0437 24.7133 44.0828 28.4365 49.0353 28.7487C50.0822 28.8147 51.8416 28.6822 52.1303 27.4701C52.2939 26.7834 52.2471 26.0716 52.4411 25.3844C52.729 24.3643 53.4125 23.6822 54.1485 22.9517C55.098 22.0482 56.1084 21.2111 57.1727 20.4462C57.9641 19.8483 58.6768 19.1502 59.5026 18.5993C60.0507 18.2702 60.5374 17.8484 60.941 17.3527C61.4556 16.6096 62.1376 15.9978 62.9322 15.5668C63.592 15.2003 64.2373 14.7871 65.0299 14.9202C65.7663 15.0438 66.2421 15.5852 66.8162 16C67.8815 16.7699 68.8844 15.8206 70.0062 15.5091C70.7641 15.2985 71.4852 15.242 72.2488 14.9789C72.8438 14.8523 73.4307 14.6906 74.0065 14.4946C74.4501 14.2787 74.7187 13.8718 75.1628 13.6808C75.3611 13.5956 75.5525 13.662 75.7486 13.5121C76.0015 13.319 76.0454 12.9741 76.2179 12.7246C76.5904 12.3046 77.1037 12.0356 77.661 11.9683Z" fill="url(#paint1_linear_3415_13319)"/>
<defs>
<linearGradient id="paint0_linear_3415_13319" x1="136.384" y1="71.3862" x2="136.384" y2="10.8697" gradientUnits="userSpaceOnUse">
<stop stop-color="#FBB294" stop-opacity="0"/>
<stop offset="1" stop-color="#FFEFEE"/>
</linearGradient>
<linearGradient id="paint1_linear_3415_13319" x1="76.4981" y1="71.5584" x2="76.4981" y2="20.2441" gradientUnits="userSpaceOnUse">
<stop stop-color="#FBB294" stop-opacity="0"/>
<stop offset="1" stop-color="#FFEFEE"/>
</linearGradient>
</defs>
</svg>
