<svg width="217" height="45" viewBox="0 0 217 45" fill="none" xmlns="http://www.w3.org/2000/svg">
<path d="M135.057 19.539C135.025 18.6633 135.189 17.7915 135.538 16.9879C135.603 16.8172 135.711 16.6662 135.851 16.5496C136.12 16.3109 136.524 16.3695 136.767 16.1724C137.096 15.8548 137.302 15.4305 137.347 14.9752C137.365 14.5402 136.92 14.1129 137.055 13.6642C137.13 13.4145 137.325 13.3688 137.453 13.1631C137.888 12.4686 138.655 11.5248 138.04 10.7386C137.813 10.519 137.573 10.3136 137.321 10.1234C137.089 9.82753 136.838 9.54647 136.57 9.2819C135.836 8.83073 135.125 8.34212 134.44 7.818C133.917 7.32433 133.509 6.7263 132.959 6.24348C132.453 5.80647 132.01 5.30077 131.644 4.74111C130.957 3.69058 130.589 3.76008 129.421 3.86642C129.038 3.87506 128.658 3.80216 128.306 3.65256C127.954 3.50297 127.638 3.28011 127.378 2.99881C126.015 1.74396 124.953 0.51374 123.056 0.0943545C121.768 -0.190493 119.945 0.21266 118.743 0.729018C117.82 1.16811 116.92 1.65417 116.047 2.18528C115.152 2.6841 114.31 3.09618 113.726 3.98381C112.754 5.46152 112.886 7.11869 112.865 8.79704C112.85 10.0091 113.383 11.1819 113.087 12.4195C112.784 13.6893 112.05 13.8081 111.024 14.2427C110.54 14.4524 110.092 14.7364 109.696 15.0845C109.4 15.4427 109.134 15.8258 108.903 16.2295C108.665 16.5779 108.365 16.8805 108.02 17.1226C107.502 17.3968 106.673 17.0618 106.145 16.88C105.247 16.4855 104.285 16.2564 103.306 16.2038C102.386 16.2198 101.481 16.4459 100.662 16.8648C99.4704 17.3341 98.3511 17.9703 97.338 18.7544C96.6062 19.3702 95.9859 20.1073 95.5041 20.9335C94.9906 21.8126 94.6218 22.8155 94.0309 23.6387C93.5938 24.2491 93.0228 24.7514 92.3617 25.107C91.7005 25.4627 90.9667 25.6623 90.2165 25.6906C89.1975 25.6603 88.1993 25.3944 87.3 24.914C86.6752 24.5432 85.9425 24.3967 85.2231 24.4985C83.9874 24.716 82.7908 24.7961 81.5456 24.9435C79.1972 25.2214 77.11 26.2753 74.8141 26.7798C72.971 27.1849 71.1339 27.4717 69.2672 27.7327C67.8805 27.9832 66.5312 28.409 65.2518 28.9997C63.7835 29.6287 62.2496 30.0919 60.6786 30.3807C57.9045 30.9038 55.0967 31.2696 52.3131 31.7713C50.591 32.0816 48.8616 32.3292 47.1718 32.7919C45.3009 33.2199 43.4038 33.524 41.4929 33.7023C38.8418 34.0685 36.2981 34.9812 33.6394 35.3044C30.3097 35.7091 26.8504 34.6404 23.5782 34.2123C20.7387 33.8063 17.8756 33.5866 15.0074 33.5546C14.1148 33.5542 13.2153 33.5077 12.325 33.5725C11.3135 33.646 10.3638 33.9759 9.34898 33.9161C7.25903 33.7928 5.14957 33.6646 3.06767 33.4217C2.55785 33.3622 -0.2465 33.1192 0.0174873 34.181C0.16723 34.7833 1.80203 35.0676 2.28296 35.2091C3.53432 35.5984 4.81122 35.9002 6.10442 36.1124C8.42427 36.4585 10.6698 36.1086 13.0081 36.0992C15.2149 36.0903 17.2297 36.6885 19.4 36.9412C22.8115 37.3386 26.156 36.9501 29.5646 36.8465C31.3836 36.7912 33.1762 37.0936 34.9902 37.1334C36.6602 37.1701 38.3369 37.1197 40.0075 37.1203C41.4865 37.0512 42.9684 37.0684 44.4454 37.172C44.8494 37.22 46.2712 37.2968 46.3865 37.8787C46.4845 38.3726 45.2596 38.6857 44.96 38.7883C43.5907 39.257 42.1582 39.111 40.7421 39.2959C38.9196 39.4795 37.1355 39.938 35.4503 40.6557C34.6376 41.0244 32.8062 41.3867 32.4058 42.2264C32.6386 43.1 34.6175 42.7299 35.1658 42.7266C37.343 42.7138 39.5114 42.7945 41.6817 42.5784C45.0878 42.2391 48.5007 42.0778 51.918 41.8968C55.1815 41.7239 58.4369 41.4123 61.6986 41.2409C69.0926 40.8522 76.5997 41.8022 83.9588 40.816C87.7097 40.3133 91.0093 38.5304 94.6813 37.7684C97.2617 37.2329 99.7049 37.3785 102.309 37.6286C104.272 37.7388 106.227 37.9526 108.167 38.2692C109.819 38.5675 111.498 38.6963 113.176 38.6538C114.73 38.66 116.245 38.4324 117.792 38.3818C119.044 38.3409 120.572 38.1633 121.707 38.7744C122.042 38.9168 122.313 39.1779 122.468 39.5076C122.624 39.8374 122.652 40.2128 122.548 40.5621C122.504 40.9629 122.324 41.3366 122.038 41.6209C121.752 41.9052 121.377 42.0829 120.976 42.1244C119.985 42.0729 118.998 41.9543 118.023 41.7695C117.406 41.7027 116.798 41.6479 116.184 41.567C115.829 41.5202 115.332 41.3491 115.025 41.6311C115.358 41.9549 115.73 42.2349 116.133 42.4643C117.221 43.1376 118.727 43.4057 119.961 43.5701C122.108 43.8559 124.212 43.4907 126.353 43.2994C127.725 43.1768 129.351 42.8445 130.735 43.0119C131.516 43.1064 132.287 43.3063 133.064 43.4276C134.902 43.7905 136.769 43.9874 138.642 44.0161C140.769 43.9637 142.907 43.6588 145.02 43.4263C147.399 43.1645 149.802 43.0824 152.171 42.7364C155.174 42.2977 158.112 41.4344 161.123 41.0697C163.934 40.7928 166.764 40.7932 169.575 41.0711C172.681 41.3113 175.806 41.1319 178.864 40.5378C180.374 40.1632 181.906 39.8812 183.45 39.6933C184.877 39.6005 186.313 39.6581 187.741 39.6684C190.133 39.6833 192.521 39.4675 194.873 39.024C197.204 38.5987 199.582 38.4985 201.938 38.2601C203.943 38.0259 205.959 37.8974 207.977 37.875C209.86 37.9629 211.746 37.9235 213.623 37.7572C214.358 37.657 215.099 37.6141 215.84 37.6289C216.17 37.6372 216.885 37.8135 217 37.38C216.852 37.0888 216.322 36.8944 216.042 36.7259C215.055 36.1757 213.984 35.7906 212.873 35.5858C211.512 35.2638 210.132 35.0177 208.777 34.6758C207.478 34.348 206.247 33.874 204.92 33.667C203.899 33.5077 202.221 33.9213 201.42 33.1638C201.072 32.7536 200.769 32.308 200.514 31.8343C200.136 31.2734 199.602 31.0013 199.209 30.5088C198.813 30.0111 198.882 29.2685 198.68 28.6942C198.518 28.2577 198.196 27.8988 197.78 27.6892C197.205 27.3029 196.58 27.0237 195.986 26.6701C195.422 26.3796 194.813 26.1878 194.184 26.103C193.392 25.9131 192.673 25.5187 191.858 25.4013C190.786 25.247 188.417 24.9707 187.938 23.7661C187.709 23.1914 188.102 22.4007 188.217 21.7962C188.46 20.8878 188.566 19.9481 188.531 19.0083C188.377 17.8136 187.725 16.8173 187.204 15.7903C186.751 14.8978 186.174 14.0875 185.783 13.1606C185.464 12.3576 185.066 11.5884 184.595 10.8644C184.238 10.3253 183.747 9.81354 183.426 9.25627C182.963 8.45449 182.969 7.47861 182.422 6.7075C181.901 5.97415 180.886 5.46402 180.102 5.02731C178.781 4.29238 177.357 3.61813 175.989 2.97017C173.826 1.94562 171.577 0.987406 169.187 1.724C167.748 2.2146 166.425 2.9922 165.296 4.00964C164.505 4.73892 164.139 5.63313 163.587 6.53732C162.883 7.63956 162.107 8.69388 161.263 9.69334C160.877 10.1698 160.091 11.5036 159.474 11.628C158.557 11.8131 158.059 10.4618 157.193 10.2825C156.853 10.267 156.512 10.2989 156.18 10.3773C155.805 10.4019 155.411 10.3677 155.034 10.3689C154.5 10.3706 154.397 10.3253 154.14 10.8589C153.894 11.3464 153.707 11.8615 153.582 12.3932C153.133 12.2906 152.771 11.6005 152.469 11.2592C151.766 10.4675 151.098 10.4029 150.136 10.1175C148.372 9.59409 146.316 9.14556 144.695 10.2079C143.635 10.9193 142.74 11.85 142.07 12.9371C141.557 13.7202 141.706 14.3156 141.672 15.1892C141.562 15.8992 141.365 16.593 141.086 17.2549C140.959 17.6777 140.689 18.6565 140.328 18.987C139.829 19.4433 138.707 19.4341 138.087 19.7966C137.964 19.8687 137.87 19.8638 137.761 19.9747C137.653 20.0849 137.652 20.3382 137.564 20.4143C137.305 20.6357 136.947 20.5577 136.567 20.56C135.357 20.5672 135.062 20.142 135.057 19.539Z" fill="url(#paint0_linear_3415_13322)"/>
<defs>
<linearGradient id="paint0_linear_3415_13322" x1="108.5" y1="46.7695" x2="108.5" y2="7.12138" gradientUnits="userSpaceOnUse">
<stop stop-color="#FBB294" stop-opacity="0"/>
<stop offset="1" stop-color="#FFEFEE"/>
</linearGradient>
</defs>
</svg>
