<svg width="62" height="62" viewBox="0 0 62 62" fill="none" xmlns="http://www.w3.org/2000/svg">
<rect width="62" height="62" rx="31" fill="white"/>
<path d="M33.4042 41.026C31.7576 41.4672 30.6108 40.7337 29.9637 38.8255L21.5815 15.1422C21.0362 13.614 21.0403 12.278 21.5936 11.1342C22.1356 9.94817 23.1877 9.14587 24.7498 8.72729C26.2698 8.32002 27.5398 8.50011 28.56 9.26755C29.6111 9.98146 30.2825 11.1365 30.5745 12.7326L35.1569 37.434C35.5506 39.4101 34.9664 40.6074 33.4042 41.026ZM36.9339 54.1988C35.4984 54.5835 34.2185 54.4513 33.0943 53.8022C32.0123 53.1418 31.2847 52.115 30.9114 50.7217C30.5493 49.3707 30.6774 48.1598 31.2956 47.0891C31.9446 45.9649 32.9869 45.2105 34.4224 44.8259C35.9001 44.4299 37.1589 44.5678 38.1986 45.2395C39.2693 45.8576 39.9856 46.8422 40.3477 48.1933C40.721 49.5866 40.6042 50.8397 39.9974 51.9525C39.4328 53.0541 38.4116 53.8029 36.9339 54.1988Z" fill="#0B4E1D"/>
</svg>
