<svg width="34" height="34" viewBox="0 0 34 34" fill="none" xmlns="http://www.w3.org/2000/svg">
<path d="M18.5417 8.8698C18.5395 8.862 18.5356 8.85476 18.5303 8.84857L18.3004 8.5776C17.6193 7.77484 16.3807 7.77484 15.6996 8.5776L15.4697 8.84857C15.4644 8.85476 15.4605 8.862 15.4583 8.8698V8.8698C15.4576 8.87239 15.457 8.87514 15.4566 8.87781C14.5245 15.6155 12.9191 16.4243 7 19.2659C9.09938 20.6572 12.4534 20.7566 15.4596 18.7069C14.118 22.0113 14.0062 24.5579 17 26.9554C19.9938 24.5579 19.882 22.0113 18.5404 18.7069C21.5466 20.7566 24.9006 20.6572 27 19.2659C21.0809 16.4243 19.4755 15.6155 18.5434 8.87781C18.543 8.87514 18.5424 8.87239 18.5417 8.8698V8.8698Z" fill="white"/>
</svg>
