<svg width="73" height="46" viewBox="0 0 73 46" fill="none" xmlns="http://www.w3.org/2000/svg">
<path fill-rule="evenodd" clip-rule="evenodd" d="M51.3235 23.6636C52.0213 24.3614 52.0213 25.4953 51.3235 26.1932C50.6257 26.891 49.4917 26.891 48.7939 26.1932L45.2787 22.6779C44.5809 21.9801 44.5809 20.8462 45.2787 20.1484C45.9765 19.4506 47.1104 19.4506 47.8082 20.1484L51.3235 23.6636Z" fill="#0A3716"/>
<path fill-rule="evenodd" clip-rule="evenodd" d="M56.2433 16.4327C56.9411 15.7349 58.075 15.7349 58.7729 16.4327C59.4707 17.1306 59.4707 18.2645 58.7729 18.9623L51.3586 26.3765C50.6608 27.0743 49.5269 27.0743 48.8291 26.3765C48.1313 25.6787 48.1313 24.5448 48.8291 23.847L56.2433 16.4327Z" fill="#0A3716"/>
<path d="M50.3379 40.123C59.7583 40.123 67.3645 32.5344 67.3383 23.1575C67.3121 13.7807 59.6537 6.18333 50.2332 6.18333C40.8128 6.18333 33.2067 13.772 33.2329 23.1488C33.259 32.5256 40.9175 40.123 50.3379 40.123ZM50.242 9.33219C57.9091 9.33219 64.1458 15.5253 64.172 23.1575C64.1981 30.7898 58.0051 36.9742 50.3379 36.9742C42.6707 36.9742 36.4341 30.7811 36.4079 23.1488C36.3817 15.5165 42.5748 9.33219 50.242 9.33219Z" fill="#0A3716"/>
<path d="M25.2339 35.2303C24.2744 35.2303 23.4981 35.9979 23.5068 36.9487C23.5068 37.8995 24.2918 38.6758 25.2513 38.6758H37.1839C35.9627 37.6639 34.8636 36.5038 33.9129 35.2303H25.2339Z" fill="#0A3716"/>
<path d="M23.4113 9.31485C23.4113 10.2656 24.1964 11.0419 25.1558 11.0419H33.8261C34.7682 9.77715 35.8672 8.61704 37.0797 7.59649H25.1471C24.1876 7.59649 23.4113 8.36408 23.42 9.31485H23.4113Z" fill="#0A3716"/>
<path d="M11.8794 16.2232C11.8794 17.1739 12.6644 17.9502 13.6239 17.9502H30.5109C30.8249 16.764 31.2436 15.6039 31.7583 14.5048H13.6152C12.6557 14.4961 11.8794 15.2637 11.8881 16.2232H11.8794Z" fill="#0A3716"/>
<path d="M13.6594 28.3213C12.6999 28.3126 11.9236 29.0802 11.9323 30.0397C11.9323 30.9904 12.7173 31.7667 13.6768 31.7667H31.8286C31.3052 30.6764 30.8778 29.525 30.5551 28.3213H13.6594Z" fill="#0A3716"/>
<path d="M29.857 23.1405C29.857 22.5561 29.8832 21.9804 29.9268 21.4134L2.29356 21.3959C1.33407 21.3959 0.557756 22.1723 0.566479 23.123C0.566479 24.0738 1.35151 24.8501 2.311 24.8501L29.9443 24.8676C29.8919 24.3006 29.8658 23.7249 29.857 23.1405Z" fill="#0A3716"/>
<path d="M72.8772 23.1577C72.8335 10.7367 62.6891 0.662043 50.2071 0.65332C49.7622 0.65332 49.3174 0.670765 48.8812 0.696933H33.6515C32.6921 0.68821 31.9157 1.46452 31.9245 2.41529C31.9245 3.36605 32.7095 4.14237 33.669 4.14237H51.0532V4.15109C61.2237 4.58722 69.3619 12.926 69.3968 23.1577C69.4317 33.0666 61.8343 41.2048 52.1086 42.0858V42.1555H33.7911C32.8316 42.1468 32.0553 42.9144 32.064 43.8739C32.064 44.8247 32.8491 45.601 33.8086 45.601H49.047C49.4831 45.6359 49.9192 45.6533 50.3641 45.6533C62.8461 45.6533 72.9295 35.5874 72.8946 23.1664L72.8772 23.1577Z" fill="#0A3716"/>
<path d="M50.3278 40.1253C59.7482 40.1253 67.3543 32.5366 67.3282 23.1598C67.302 13.7829 59.6435 6.18555 50.2231 6.18555C40.8027 6.18555 33.1966 13.7742 33.2227 23.151C33.2489 32.5279 40.9073 40.1253 50.3278 40.1253ZM50.2318 9.33441C57.899 9.33441 64.1357 15.5275 64.1619 23.1598C64.188 30.7921 57.995 36.9764 50.3278 36.9764C42.6606 36.9764 36.4239 30.7833 36.3978 23.151C36.3716 15.5187 42.5646 9.33441 50.2318 9.33441Z" fill="#0A3716"/>
</svg>
