<svg width="182" height="54" viewBox="0 0 182 54" fill="none" xmlns="http://www.w3.org/2000/svg">
<path fill-rule="evenodd" clip-rule="evenodd" d="M174.387 45.5623C184.538 35.3099 184.538 18.6892 174.387 8.43917C164.234 -1.81322 147.774 -1.81322 137.623 8.43917C127.472 18.6892 127.472 35.3122 137.623 45.5623C147.776 55.8124 164.236 55.8124 174.387 45.5623Z" fill="url(#paint0_radial_290_1212)"/>
<path d="M112.591 7.54314C112.591 5.33061 113.26 3.64509 114.601 2.48891C115.941 1.33273 117.56 0.754639 119.459 0.754639C121.261 0.754639 122.832 1.33273 124.172 2.48891C125.51 3.64509 126.182 5.33061 126.182 7.54314V46.0546C126.182 47.1853 125.986 48.1929 125.598 49.0797C125.207 49.9643 124.708 50.7165 124.099 51.3294C123.489 51.9446 122.783 52.4113 121.979 52.7317C121.176 53.0521 120.335 53.2123 119.459 53.2123C118.291 53.2123 117.146 52.9174 116.026 52.3277C114.904 51.738 113.932 50.8024 113.104 49.5232L99.8051 29.5315V46.4261C99.8051 48.6386 99.1361 50.3241 97.7956 51.4803C96.4575 52.6365 94.8366 53.2146 92.9374 53.2146C91.1348 53.2146 89.576 52.6365 88.2608 51.4803C86.9457 50.3241 86.2881 48.6386 86.2881 46.4261V7.84263C86.2881 6.76074 86.4697 5.77636 86.8353 4.89181C87.2009 4.00727 87.6998 3.25505 88.3344 2.64214C88.9667 2.0269 89.6725 1.56025 90.4543 1.23986C91.2337 0.919476 92.0614 0.759282 92.9374 0.759282C94.156 0.759282 95.324 1.04252 96.4437 1.609C97.5657 2.17549 98.5383 3.09718 99.366 4.37641L112.591 24.3681V7.54778V7.54314Z" fill="white"/>
<path d="M50.6968 52.9128C45.9996 52.9128 43.6475 50.503 43.6475 45.6948V8.26524C43.6475 3.45711 45.9973 1.04724 50.6968 1.04724H74.8432C77.0826 1.04724 78.83 1.75766 80.067 3.17387C81.3108 4.59472 81.9293 6.28487 81.9293 8.2397C81.9293 10.1945 81.3108 11.8847 80.067 13.3055C78.83 14.7217 77.0803 15.4322 74.8432 15.4322H57.8198V20.3749H71.9944C74.0407 20.3749 75.6341 21.0273 76.7791 22.3298C77.9241 23.6322 78.4966 25.1715 78.4966 26.9406C78.4966 28.712 77.9241 30.2489 76.7791 31.5514C75.6341 32.8538 74.0361 33.5062 71.9944 33.5062H57.8198V38.5233H74.8432C77.0826 38.5233 78.8254 39.2244 80.067 40.6267C81.3085 42.0289 81.9293 43.7121 81.9293 45.6809C81.9293 47.6473 81.3062 49.3468 80.067 50.7723C78.8254 52.1978 77.0803 52.9128 74.8432 52.9128H50.6968V52.9128Z" fill="white"/>
<path d="M14.1769 46.0514C14.1769 48.4056 13.4711 50.1956 12.0571 51.4005C10.6453 52.6054 8.98762 53.2091 7.08847 53.2091C5.14104 53.2091 3.47181 52.6054 2.08309 51.4005C0.694362 50.1956 0 48.4126 0 46.0514V7.83713C0 5.57352 0.696661 3.82532 2.08309 2.59949C3.46721 1.37366 5.13874 0.753784 7.08847 0.753784C8.98762 0.753784 10.6453 1.37134 12.0571 2.59949C13.4665 3.82532 14.1769 5.58049 14.1769 7.83713V20.0838L25.7926 3.48404C26.503 2.46948 27.2457 1.73352 28.0941 1.34348C28.9448 0.953446 30.007 0.753784 31.2716 0.753784C33.6099 0.753784 35.424 1.4317 36.7138 2.7829C38.0037 4.1341 38.6497 5.84516 38.6497 7.91142C38.6497 8.74721 38.5256 9.56211 38.2842 10.3445C38.0428 11.1292 37.5852 11.7909 37.0426 12.4108L25.1327 25.9854L37.1139 41.4778C38.2221 42.9102 38.7946 44.4054 38.7946 45.9771C38.7946 48.1897 38.114 49.9495 36.7483 51.2519C35.3849 52.5544 33.6076 53.2068 31.4141 53.2068C30.3427 53.2068 29.331 52.9862 28.3815 52.5428C27.4319 52.0993 26.6249 51.3773 25.9351 50.4022L14.1723 33.8024V46.0491L14.1769 46.0514Z" fill="white"/>
<path d="M165.983 42.0358C165.164 42.535 163.966 42.7857 162.384 42.7857H150.104C147.329 42.7857 145.94 41.7061 145.94 39.5493C145.94 38.681 146.439 37.6711 147.44 36.5219C149.104 34.6715 150.755 32.8212 152.394 30.9731C154.392 28.7304 155.988 26.8104 157.181 25.2131C158.513 23.4208 159.179 21.9071 159.179 20.672C159.179 19.8316 158.949 19.1374 158.492 18.5918C158.034 18.0462 157.388 17.7723 156.556 17.7723C155.834 17.7723 155.199 18.03 154.652 18.543C154.36 18.7195 154.091 18.9563 153.841 19.2535C153.48 19.7294 153.063 20.535 152.592 21.6703C152.121 22.8056 151.732 23.5694 151.426 23.9618C151.378 24.0221 151.325 24.0802 151.272 24.1359C150.888 24.3495 150.428 24.4563 149.895 24.4563C148.867 24.4563 148.042 24.1127 147.419 23.4255C146.793 22.7383 146.483 21.8769 146.483 20.8415C146.483 20.0289 146.662 19.1049 147.023 18.0671C147.628 16.2818 148.66 14.7959 150.123 13.6095L150.284 13.4958C152.102 12.2351 154.093 11.6036 156.257 11.6036C159.06 11.6036 161.364 12.4023 163.168 14.0065C165.056 15.6874 165.999 17.9371 165.999 20.7393C165.999 23.2676 164.736 26.1836 162.21 29.4966C160.934 31.1287 158.699 33.5386 155.507 36.7424H161.876C165.15 36.7424 166.79 37.815 166.79 39.9579C166.79 40.8262 166.521 41.5181 165.983 42.0358V42.0358Z" fill="#FEFEFE"/>
<defs>
<radialGradient id="paint0_radial_290_1212" cx="0" cy="0" r="1" gradientUnits="userSpaceOnUse" gradientTransform="translate(165.423 18.6389) rotate(134.795) scale(40.061 40.0645)">
<stop stop-color="#AEC928"/>
<stop offset="0.709804" stop-color="#0A823D"/>
<stop offset="1" stop-color="#AEC928"/>
</radialGradient>
</defs>
</svg>
