<svg width="182" height="54" viewBox="0 0 182 54" fill="none" xmlns="http://www.w3.org/2000/svg">
<path fill-rule="evenodd" clip-rule="evenodd" d="M174.385 45.5612C184.537 35.3096 184.537 18.6902 174.385 8.43858C164.232 -1.81302 147.771 -1.81302 137.62 8.43858C127.468 18.6902 127.468 35.3119 137.62 45.5612C147.773 55.8128 164.234 55.8128 174.385 45.5612Z" fill="url(#paint0_radial_290_4092)"/>
<path fill-rule="evenodd" clip-rule="evenodd" d="M140.95 48.4043C153.055 52.7756 164.111 37.2334 165.985 30.4501C168.224 31.6688 170.314 32.8435 172.263 33.9787C173.369 34.7912 174.94 33.273 174.494 31.5737C173.565 28.6231 172.401 25.7978 171.107 22.9935C172.677 20.7278 174.11 18.5966 175.422 16.5816C176.103 15.5207 174.972 13.8608 173.769 14.0234C171.401 14.3716 169.505 14.6339 167.137 14.9728C165.506 12.5237 161.451 6.1675 158.248 6.14197C157.536 6.19768 157.053 6.66894 157.297 7.51163C158.039 10.5342 158.421 13.0924 158.628 16.2009C155.165 16.6791 151.701 17.155 148.238 17.6309C146.045 17.949 145.684 20.6001 147.843 21.5379C150.963 23.2976 153.984 24.8576 157.416 26.4734C156.554 33.4889 149.694 49.1309 140.952 48.402L140.95 48.4043Z" fill="#FEFEFE"/>
<path d="M112.591 7.54261C112.591 5.33025 113.26 3.64487 114.601 2.48878C115.941 1.33268 117.56 0.754639 119.459 0.754639C121.261 0.754639 122.831 1.33268 124.172 2.48878C125.51 3.64487 126.181 5.33025 126.181 7.54261V46.0534C126.181 47.184 125.986 48.1915 125.597 49.0783C125.206 49.9628 124.707 50.715 124.098 51.3301C123.489 51.9453 122.783 52.4119 121.978 52.7323C121.174 53.0527 120.335 53.2129 119.459 53.2129C118.291 53.2129 117.146 52.918 116.026 52.3284C114.904 51.7387 113.932 50.8032 113.104 49.524L99.8062 29.5316V46.4249C99.8062 48.6372 99.1372 50.3226 97.7969 51.4787C96.4565 52.6348 94.838 53.2129 92.9389 53.2129C91.1365 53.2129 89.5777 52.6348 88.2626 51.4787C86.9476 50.3226 86.29 48.6372 86.29 46.4249V7.84208C86.29 6.76028 86.4717 5.77597 86.8372 4.89149C87.2028 4.00469 87.7017 3.25486 88.3362 2.64199C88.9685 2.0268 89.6743 1.56019 90.456 1.23983C91.2353 0.919463 92.063 0.759282 92.9389 0.759282C94.1574 0.759282 95.3254 1.0425 96.445 1.60894C97.567 2.17538 98.5395 3.097 99.3671 4.37613L112.591 24.3686V7.54725V7.54261Z" fill="white"/>
<path d="M50.6953 52.9127C45.9983 52.9127 43.644 50.5031 43.644 45.6953V8.26627C43.644 3.45851 45.9937 1.04883 50.6953 1.04883H74.8423C77.0816 1.04883 78.8289 1.7592 80.0658 3.17529C81.3096 4.59603 81.9281 6.28606 81.9281 8.24074C81.9281 10.1954 81.3096 11.8854 80.0658 13.3062C78.8289 14.7223 77.0793 15.435 74.8423 15.435H57.8178V20.3774H71.9915C74.0377 20.3774 75.6332 21.0297 76.7759 22.332C77.9208 23.6344 78.4933 25.1735 78.4933 26.9425C78.4933 28.7138 77.9208 30.2506 76.7759 31.5529C75.6309 32.8553 74.0331 33.5076 71.9915 33.5076H57.8178V38.5243H74.8423C77.0816 38.5243 78.8243 39.2254 80.0658 40.6275C81.3073 42.0297 81.9281 43.7128 81.9281 45.6814C81.9281 47.6477 81.305 49.347 80.0658 50.7724C78.8243 52.1977 77.0793 52.9127 74.8423 52.9127H50.6953V52.9127Z" fill="white"/>
<path d="M14.176 46.0547C14.176 48.4086 13.4702 50.1985 12.0563 51.4033C10.6447 52.6082 8.98704 53.2117 7.08802 53.2117C5.14071 53.2117 3.47159 52.6082 2.08295 51.4033C0.694318 50.1985 0 48.4156 0 46.0547V7.83866C0 5.57523 0.696617 3.82716 2.08295 2.60143C3.46929 1.37569 5.13841 0.755862 7.08802 0.755862C8.98704 0.755862 10.6447 1.37337 12.0563 2.60143C13.4656 3.82716 14.176 5.58219 14.176 7.83866V20.0844L25.7932 3.48591C26.5036 2.47143 27.2462 1.73552 28.0946 1.34551C28.9452 0.955508 30.0074 0.75354 31.2719 0.75354C33.61 0.75354 35.424 1.43141 36.7161 2.7825C38.0058 4.13592 38.6519 5.84452 38.6519 7.91062C38.6519 8.74635 38.5277 9.56119 38.2863 10.3458C38.0449 11.1305 37.5874 11.7921 37.0448 12.412L25.1357 25.9856L37.1184 41.4767C38.2265 42.9091 38.799 44.4041 38.799 45.9781C38.799 48.1904 38.1185 49.9501 36.7528 51.2524C35.3895 52.5548 33.6123 53.2071 31.419 53.2071C30.3476 53.2071 29.3361 52.9866 28.3866 52.5432C27.437 52.0998 26.6301 51.3778 25.938 50.4028L14.176 33.8043V46.05V46.0547Z" fill="white"/>
<defs>
<radialGradient id="paint0_radial_290_4092" cx="0" cy="0" r="1" gradientUnits="userSpaceOnUse" gradientTransform="translate(166.454 17.4697) rotate(135.986) scale(46.1901 46.1873)">
<stop stop-color="#FCEA00"/>
<stop offset="0.631373" stop-color="#F39B18"/>
<stop offset="1" stop-color="#FCEA00"/>
</radialGradient>
</defs>
</svg>
