<svg width="154" height="96" viewBox="0 0 154 96" fill="none" xmlns="http://www.w3.org/2000/svg">
<path d="M150.418 56.9292C149.612 55.1136 148.569 53.4116 147.316 51.8673C146.415 50.5838 145.391 49.3905 144.258 48.3043C143.864 47.935 143.449 47.5874 143.034 47.2615C144.211 46.5193 145.175 45.4864 145.83 44.2634C146.52 42.9839 146.841 41.5394 146.756 40.0899C146.671 38.6404 146.184 37.2426 145.35 36.0513L144.913 35.3995C145.175 35.0737 145.415 34.7478 145.656 34.4002C147.254 31.9196 148.082 29.0255 148.037 26.0794C148.074 23.1481 147.246 20.2703 145.656 17.8021C145.367 17.3506 145.053 16.9154 144.716 16.4986C143.094 14.1224 140.819 12.2598 138.163 11.1325C135.443 9.98653 132.51 9.42392 129.556 9.48134H119.639C118.084 9.47178 116.562 9.92582 115.27 10.7849C113.975 9.93064 112.455 9.47705 110.901 9.48134H94.4737C93.2743 9.48125 92.091 9.75551 91.0153 10.2829C89.9395 10.8103 89.0002 11.5767 88.2698 12.5229C87.4685 11.9853 86.6204 11.52 85.7358 11.1325C83.0238 9.9845 80.0978 9.42174 77.1509 9.48134H67.2116C65.5848 9.4831 63.9982 9.98382 62.668 10.9152C61.339 9.98124 59.7515 9.48026 58.1243 9.48134H54.8694C53.4473 9.48129 52.0515 9.86265 50.8289 10.5853C49.6064 11.3079 48.6025 12.345 47.9229 13.5874L47.5733 13.1964C46.8698 12.062 45.8864 11.1252 44.7165 10.4751C43.5466 9.82487 42.229 9.48281 40.8889 9.48134H37.5248C35.7147 9.48822 33.9627 10.1176 32.5661 11.2628C32.2353 11.0676 31.8924 10.8934 31.5394 10.7414C30.4319 10.3023 29.2927 9.94644 28.1317 9.67687C26.0247 9.19912 23.8704 8.95863 21.7093 8.95994C18.7129 8.89973 15.7369 9.46209 12.9715 10.6111C10.3716 11.6769 8.1294 13.4549 6.5055 15.7382C5.02693 17.9652 4.26501 20.587 4.32104 23.2551C4.25373 25.539 4.82869 27.7962 5.98123 29.7727C6.31463 30.3441 6.70232 30.8825 7.13899 31.3804C6.64154 31.9563 6.22959 32.6001 5.9157 33.2922L5.12929 35.0737C4.51338 36.464 4.31558 38.002 4.5598 39.5018C4.80403 41.0015 5.47983 42.3988 6.5055 43.5248C6.62353 43.7405 6.76254 43.9443 6.92055 44.1331C5.97287 44.8628 5.20489 45.7977 4.67497 46.8668C4.14504 47.9359 3.86712 49.1111 3.8623 50.303V80.0666C3.87798 82.0536 4.65991 83.9589 6.04676 85.3893C6.74375 86.4855 7.70324 87.3928 8.8393 88.0298C9.97537 88.6667 11.2525 89.0135 12.5565 89.0391H34.401C35.8326 89.0331 37.2354 88.6397 38.4592 87.901C39.6829 87.1623 40.6815 86.1063 41.3476 84.8461C43.1301 86.1798 45.0938 87.2551 47.1801 88.0398C50.2559 89.171 53.5125 89.7377 56.7918 89.7126C60.0876 89.7435 63.3609 89.169 66.4471 88.018C69.3652 86.927 72.0378 85.2732 74.3111 83.1516C76.5652 81.0469 78.3705 78.5127 79.6194 75.6998C80.0434 74.7278 80.3939 73.7257 80.6679 72.7017V80.0014C80.6836 81.9884 81.4655 83.8937 82.8524 85.3241C83.5575 86.4571 84.5412 87.3927 85.7108 88.0427C86.8803 88.6927 88.1971 89.0356 89.5368 89.0391H95.1072C97.2027 89.0334 99.2107 88.203 100.692 86.7293C102.174 85.2557 103.009 83.2586 103.015 81.1746V71.7241C103.27 72.6581 103.591 73.5728 103.976 74.4615C104.744 76.2618 105.743 77.9559 106.947 79.5017C107.864 80.7923 108.902 81.9927 110.049 83.0864C112.352 85.2229 115.053 86.8908 118 87.9963C121.076 89.1275 124.333 89.6943 127.612 89.6691C130.901 89.7018 134.167 89.1272 137.245 87.9746C140.17 86.8836 142.85 85.2299 145.131 83.1081C147.439 80.9448 149.272 78.3306 150.517 75.4296C151.761 72.5286 152.389 69.4032 152.362 66.2494C152.381 63.0412 151.718 59.8652 150.418 56.9292Z" fill="#1E2866"/>
<path d="M148.3 54.2568C147.482 52.4479 146.44 50.7475 145.198 49.1948C144.297 47.9058 143.264 46.7119 142.118 45.6318C141.747 45.2625 141.31 44.9366 140.895 44.589C142.088 43.8594 143.061 42.8238 143.713 41.5909C144.386 40.3218 144.697 38.8939 144.612 37.4617C144.527 36.0295 144.05 34.6477 143.232 33.4657L142.796 32.814C143.055 32.4951 143.296 32.1614 143.516 31.8146C145.135 29.3419 145.972 26.4438 145.919 23.4938C145.974 20.5331 145.145 17.6226 143.538 15.1296C143.232 14.6734 142.883 14.2172 142.533 13.7827C140.907 11.4201 138.633 9.57238 135.98 8.45998C133.265 7.32199 130.341 6.75965 127.395 6.80887H117.521C115.968 6.80716 114.448 7.26053 113.152 8.11238C111.86 7.25212 110.338 6.79797 108.783 6.80887H92.2908C91.0889 6.81196 89.9035 7.0875 88.8248 7.61453C87.746 8.14156 86.8022 8.90622 86.0651 9.8504C85.2692 9.31647 84.4287 8.85131 83.553 8.45998C80.8379 7.32199 77.914 6.75965 74.9681 6.80887H65.0943C63.457 6.80817 61.8605 7.31716 60.5288 8.26446C59.2146 7.31518 57.6312 6.80549 56.0069 6.80887H52.7521C51.33 6.80881 49.9341 7.19018 48.7116 7.91279C47.4891 8.63541 46.4852 9.67254 45.8055 10.9149L45.456 10.5239C44.7524 9.3895 43.769 8.45277 42.5991 7.80258C41.4293 7.1524 40.1117 6.81034 38.7716 6.80887H35.4949C33.6848 6.81574 31.9328 7.44516 30.5361 8.59034C30.2054 8.3951 29.8624 8.22095 29.5094 8.06893C28.4008 7.63292 27.2619 7.27715 26.1017 7.00439C23.9662 6.52012 21.7822 6.27959 19.592 6.28746C16.5503 6.21841 13.5282 6.78844 10.7231 7.9603C8.1709 9.03608 5.9753 10.8056 4.38816 13.0657C2.90659 15.2994 2.1446 17.9291 2.2037 20.6044C2.1317 22.8887 2.70699 25.1472 3.86389 27.122C4.17501 27.6609 4.52547 28.1765 4.91243 28.6644C4.42456 29.2431 4.02019 29.8866 3.71098 30.5763L2.92457 32.3577C2.3104 33.7433 2.11149 35.2758 2.35174 36.7711C2.59199 38.2664 3.26118 39.6609 4.27894 40.7871C4.41203 40.9985 4.55793 41.2017 4.71583 41.3954C3.76046 42.1195 2.98566 43.0528 2.45151 44.1228C1.91735 45.1928 1.63822 46.3708 1.63574 47.5654V77.329C1.64693 79.3169 2.42951 81.2237 3.8202 82.6516C4.52533 83.7846 5.50907 84.7202 6.6786 85.3702C7.84814 86.0202 9.1649 86.3631 10.5046 86.3666H32.3492C33.779 86.3651 35.1813 85.9759 36.4053 85.2409C37.6293 84.506 38.6286 83.453 39.2958 82.1954C41.0844 83.514 43.047 84.5813 45.1283 85.3673C51.3544 87.6002 58.1692 87.6002 64.3953 85.3673C67.3144 84.2683 69.9868 82.6072 72.2593 80.4791C74.4711 78.3497 76.2314 75.8011 77.4365 72.9839C77.8509 72.0082 78.2012 71.0067 78.485 69.9858V77.329C78.4962 79.3169 79.2788 81.2237 80.6695 82.6516C81.3746 83.7846 82.3584 84.7202 83.5279 85.3702C84.6974 86.0202 86.0142 86.3631 87.3539 86.3666H92.9243C95.0178 86.3667 97.0259 85.5411 98.5082 84.0709C99.9906 82.6007 100.826 80.6059 100.832 78.5238V69.0516C101.083 69.9866 101.405 70.9016 101.793 71.789C102.599 73.6115 103.642 75.3207 104.895 76.8727C107.601 80.752 111.435 83.7159 115.883 85.3673C122.102 87.595 128.909 87.595 135.128 85.3673C138.051 84.2637 140.73 82.6033 143.014 80.4791C146.478 77.1657 148.841 72.8781 149.786 68.1913C150.731 63.5044 150.213 58.6423 148.3 54.2568V54.2568Z" fill="#454EA0"/>
<path d="M22.1921 34.6607C21.38 34.8734 20.5413 34.9685 19.7018 34.9431C18.1449 34.9378 16.598 34.696 15.1145 34.2262C14.3281 33.9655 13.5999 33.6831 12.93 33.3789C12.6853 33.2627 12.4197 33.1963 12.1488 33.1838C11.878 33.1713 11.6073 33.2128 11.3528 33.3059C11.0983 33.3991 10.8652 33.5419 10.6671 33.7261C10.469 33.9103 10.31 34.132 10.1994 34.3783L9.28195 36.0511C9.17236 36.2907 9.11143 36.5494 9.10265 36.8125C9.09386 37.0755 9.1374 37.3377 9.23077 37.5839C9.32413 37.8302 9.46548 38.0557 9.64671 38.2475C9.82793 38.4393 10.0455 38.5936 10.2868 38.7016C11.2878 39.1566 12.3254 39.5272 13.3887 39.8096C15.4138 40.3367 17.4993 40.5996 19.5926 40.5917C21.835 40.6819 24.0704 40.2891 26.146 39.4402C27.6964 38.807 29.031 37.7437 29.9906 36.377C30.8434 35.1443 31.2934 33.6802 31.2795 32.184C31.3282 30.995 31.0487 29.8154 30.4712 28.7732C29.9404 27.8762 29.1886 27.1285 28.2867 26.6006C27.3844 26.0223 26.407 25.5691 25.3814 25.2537C24.311 24.9061 23.197 24.6454 22.1921 24.4064L19.2649 23.7546C18.4957 23.6021 17.7574 23.3231 17.0805 22.9291C16.8369 22.797 16.6335 22.6023 16.4913 22.3654C16.3492 22.1285 16.2735 21.858 16.2722 21.5821C16.272 21.1488 16.4182 20.728 16.6873 20.3872C17.0501 19.9843 17.5193 19.6907 18.0416 19.5399C18.8903 19.3262 19.7674 19.2456 20.6411 19.301C21.8457 19.3006 23.0443 19.4689 24.2018 19.8006C24.8421 19.9755 25.4697 20.1933 26.0804 20.4524C26.3269 20.5548 26.5913 20.6073 26.8584 20.6069C27.1254 20.6065 27.3897 20.5532 27.6358 20.45C27.8819 20.3468 28.1048 20.1959 28.2916 20.0061C28.4784 19.8163 28.6253 19.5913 28.7236 19.3444L29.4664 17.5847C29.5691 17.3367 29.6212 17.0709 29.6195 16.8027C29.6179 16.5346 29.5626 16.2694 29.4569 16.0227C29.3512 15.776 29.1971 15.5527 29.0037 15.3658C28.8103 15.1789 28.5814 15.0322 28.3304 14.9342C27.493 14.6016 26.6312 14.3329 25.7528 14.1304C24.0914 13.7459 22.3905 13.5564 20.6848 13.5655C18.4424 13.4739 16.2066 13.8667 14.1315 14.7169C12.5751 15.3497 11.2281 16.4033 10.2431 17.7585C9.37704 19.0418 8.92723 20.5582 8.95428 22.1035C8.91197 23.3084 9.19884 24.5022 9.78438 25.5578C10.3376 26.4373 11.0845 27.1802 11.9688 27.7303C12.8737 28.3041 13.8505 28.757 14.8742 29.0773C15.9092 29.4373 16.9674 29.7276 18.0416 29.9463C19.112 30.1636 20.0732 30.4026 20.947 30.6198C21.7164 30.7829 22.4541 31.069 23.1314 31.4671C23.3827 31.6088 23.5918 31.8141 23.7376 32.0621C23.8833 32.3101 23.9606 32.592 23.9615 32.8792C23.966 33.291 23.8094 33.6883 23.5246 33.9872C23.1465 34.3226 22.6874 34.5547 22.1921 34.6607V34.6607Z" fill="#D32679"/>
<path d="M46.8098 40.6785C48.4553 40.7763 50.104 40.5483 51.6602 40.0075C53.2164 39.4668 54.6491 38.6241 55.8753 37.5283C57.0057 36.329 57.8775 34.9124 58.4372 33.3657C58.9969 31.819 59.2327 30.1747 59.1301 28.5341V16.0855C59.1244 15.5534 58.9078 15.0451 58.5275 14.6709C58.1471 14.2966 57.6336 14.0868 57.0986 14.0868H53.8438C53.3087 14.0868 52.7953 14.2966 52.4149 14.6709C52.0345 15.0451 51.818 15.5534 51.8122 16.0855V28.3168C51.9735 30.0222 51.5078 31.728 50.5015 33.1181C50.0423 33.6115 49.4791 33.9978 48.8522 34.2494C48.2253 34.501 47.5503 34.6118 46.8753 34.5737C46.1971 34.612 45.5188 34.5015 44.8883 34.2499C44.2579 33.9984 43.6908 33.612 43.2273 33.1181C42.204 31.7354 41.7295 30.0258 41.8948 28.3168V16.0855C41.889 15.5534 41.6724 15.0451 41.2921 14.6709C40.9117 14.2966 40.3982 14.0868 39.8632 14.0868H36.4991C35.9641 14.0868 35.4507 14.2966 35.0703 14.6709C34.6899 15.0451 34.4733 15.5534 34.4676 16.0855V28.5341C34.3592 30.1717 34.5881 31.8141 35.1402 33.3606C35.6924 34.9072 36.5562 36.3254 37.6788 37.5283C38.9135 38.6311 40.3571 39.4778 41.925 40.0187C43.4929 40.5596 45.1536 40.7839 46.8098 40.6785V40.6785Z" fill="#D32679"/>
<path d="M71.5824 33.3572H76.148C78.2779 33.4026 80.393 32.9953 82.3518 32.1623C83.9854 31.4622 85.3811 30.308 86.3712 28.8383C87.3479 27.3163 87.8425 25.5377 87.7911 23.7329C87.8246 21.9439 87.3311 20.1843 86.3712 18.6709C85.3936 17.1901 83.9942 16.0328 82.3518 15.347C80.3895 14.5295 78.2746 14.137 76.148 14.1955H66.1868C65.9211 14.1926 65.6574 14.2422 65.411 14.3414C65.1647 14.4405 64.9405 14.5873 64.7516 14.7732C64.5627 14.9591 64.4127 15.1804 64.3103 15.4243C64.208 15.6682 64.1553 15.9299 64.1553 16.1942V38.2236C64.1553 38.4879 64.208 38.7496 64.3103 38.9935C64.4127 39.2375 64.5627 39.4588 64.7516 39.6447C64.9405 39.8306 65.1647 39.9773 65.411 40.0765C65.6574 40.1756 65.9211 40.2252 66.1868 40.2223H69.5509C70.0859 40.2224 70.5994 40.0125 70.9797 39.6383C71.3601 39.264 71.5767 38.7557 71.5824 38.2236V33.3572ZM79.1844 20.8434C79.574 21.1997 79.8784 21.6384 80.075 22.1272C80.2715 22.616 80.3554 23.1424 80.3203 23.6677C80.3605 24.2 80.2792 24.7343 80.0825 25.2309C79.8858 25.7275 79.5788 26.1735 79.1844 26.5354C78.1832 27.2694 76.9516 27.6238 75.7111 27.5348H71.5824V19.8875H75.6892C76.9326 19.7708 78.1758 20.1109 79.1844 20.8434V20.8434Z" fill="#D32679"/>
<path d="M110.423 34.4651H98.8455V29.6855H108.479C109.014 29.6855 109.527 29.4757 109.908 29.1014C110.288 28.7272 110.505 28.2189 110.511 27.6868V26.1877C110.511 25.6519 110.296 25.138 109.915 24.7591C109.534 24.3802 109.018 24.1673 108.479 24.1673H98.8455V19.8223H110.052C110.575 19.7887 111.065 19.5552 111.419 19.1705C111.774 18.7859 111.965 18.2798 111.952 17.7584V16.0855C111.946 15.5534 111.73 15.0451 111.35 14.6709C110.969 14.2966 110.456 14.0868 109.921 14.0868H93.428C92.893 14.0868 92.3795 14.2966 91.9992 14.6709C91.6188 15.0451 91.4022 15.5534 91.3965 16.0855V38.2235C91.4022 38.7556 91.6188 39.2639 91.9992 39.6382C92.3795 40.0124 92.893 40.2223 93.428 40.2222H110.423C110.689 40.2251 110.953 40.1755 111.199 40.0764C111.445 39.9772 111.669 39.8304 111.858 39.6446C112.047 39.4587 112.197 39.2374 112.3 38.9934C112.402 38.7495 112.455 38.4878 112.455 38.2235V36.4855C112.455 35.9496 112.241 35.4357 111.86 35.0568C111.479 34.6779 110.962 34.4651 110.423 34.4651Z" fill="#D32679"/>
<path d="M124.009 33.2269H128.05L132.201 39.2883C132.389 39.5582 132.641 39.7784 132.934 39.9298C133.227 40.0813 133.553 40.1593 133.883 40.1573H136.898C137.266 40.1569 137.627 40.0568 137.943 39.8678C138.259 39.6789 138.517 39.4081 138.689 39.0844C138.862 38.7608 138.943 38.3966 138.924 38.0306C138.905 37.6647 138.786 37.3109 138.58 37.0071L135.084 31.9452C136.591 31.2661 137.877 30.1827 138.798 28.8167C139.775 27.3031 140.27 25.5311 140.218 23.733C140.251 21.944 139.758 20.1844 138.798 18.671C137.82 17.1902 136.421 16.0329 134.779 15.3471C132.816 14.5296 130.701 14.1371 128.575 14.1956H118.614C118.348 14.1928 118.084 14.2423 117.838 14.3415C117.591 14.4407 117.367 14.5874 117.178 14.7733C116.989 14.9592 116.839 15.1805 116.737 15.4244C116.635 15.6684 116.582 15.9301 116.582 16.1944V38.2237C116.582 38.4881 116.635 38.7497 116.737 38.9937C116.839 39.2376 116.989 39.4589 117.178 39.6448C117.367 39.8307 117.591 39.9774 117.838 40.0766C118.084 40.1758 118.348 40.2253 118.614 40.2225H121.978C122.513 40.2225 123.026 40.0126 123.407 39.6384C123.787 39.2642 124.003 38.7558 124.009 38.2237V33.2269ZM131.611 20.8436C132.001 21.1999 132.305 21.6386 132.502 22.1274C132.698 22.6161 132.782 23.1426 132.747 23.6678C132.787 24.2001 132.706 24.7345 132.509 25.2311C132.313 25.7277 132.006 26.1736 131.611 26.5356C130.61 27.2695 129.378 27.6239 128.138 27.5349H124.009V19.8877H128.116C129.359 19.771 130.603 20.111 131.611 20.8436V20.8436Z" fill="#D32679"/>
<path d="M16.2078 46.9136H10.6374C10.3581 46.9125 10.0817 46.9694 9.82574 47.0805C9.56978 47.1917 9.33991 47.3546 9.15082 47.559C8.96172 47.7635 8.81754 48.0048 8.72748 48.2678C8.63741 48.5307 8.60344 48.8094 8.62773 49.0861V78.8497C8.62773 79.1121 8.67971 79.3721 8.78071 79.6146C8.88171 79.857 9.02974 80.0774 9.21636 80.263C9.40298 80.4486 9.62453 80.5958 9.86835 80.6962C10.1122 80.7967 10.3735 80.8484 10.6374 80.8484H32.482C32.7459 80.8484 33.0073 80.7967 33.2511 80.6962C33.4949 80.5958 33.7165 80.4486 33.9031 80.263C34.0897 80.0774 34.2378 79.857 34.3388 79.6146C34.4397 79.3721 34.4917 79.1121 34.4917 78.8497V75.1564C34.4917 74.6263 34.28 74.1179 33.9031 73.7431C33.5262 73.3682 33.015 73.1577 32.482 73.1577H18.2175V49.0861C18.2418 48.8094 18.2078 48.5307 18.1178 48.2678C18.0277 48.0048 17.8835 47.7635 17.6944 47.559C17.5053 47.3546 17.2755 47.1917 17.0195 47.0805C16.7635 46.9694 16.4871 46.9125 16.2078 46.9136V46.9136Z" fill="#D32679"/>
<path d="M68.262 51.2588C66.5524 49.6414 64.5312 48.385 62.3202 47.5655C59.9105 46.6722 57.3553 46.2303 54.7839 46.262C52.2128 46.2357 49.6586 46.6775 47.2475 47.5655C45.0319 48.3888 43.0043 49.6446 41.2839 51.2588C39.5964 52.8234 38.2505 54.7165 37.33 56.8204C35.8913 60.0891 35.499 63.7189 36.2063 67.2169C36.9137 70.715 38.6865 73.9118 41.2839 76.3731C43.0164 77.9824 45.0501 79.2373 47.2693 80.0664C49.6805 80.9544 52.2347 81.3962 54.8057 81.3699C57.3772 81.4016 59.9324 80.9597 62.3421 80.0664C64.5298 79.2533 66.5397 78.0288 68.262 76.46C69.9564 74.8628 71.3087 72.9415 72.2377 70.8115C73.1889 68.5968 73.6793 66.2134 73.6793 63.8051C73.6793 61.3968 73.1889 59.0134 72.2377 56.7987C71.2925 54.7095 69.9414 52.8268 68.262 51.2588V51.2588ZM63.2377 67.7699C62.8119 68.9034 62.1577 69.9384 61.3154 70.8115C60.503 71.6674 59.5111 72.335 58.4101 72.7667C56.0845 73.6653 53.505 73.6653 51.1795 72.7667C50.0814 72.3295 49.0906 71.6627 48.2742 70.8115C47.4672 69.9402 46.8367 68.9222 46.4174 67.8134C45.5003 65.2712 45.5003 62.491 46.4174 59.9489C46.8608 58.8191 47.5211 57.7861 48.3615 56.9073C49.1835 56.0627 50.1728 55.3969 51.2669 54.9521C53.5924 54.0535 56.1719 54.0535 58.4974 54.9521C59.5943 55.3917 60.5846 56.0582 61.4028 56.9073C62.2505 57.7803 62.9119 58.8149 63.3469 59.9489C64.2797 62.5107 64.2797 65.3167 63.3469 67.8786L63.2377 67.7699Z" fill="#D32679"/>
<path d="M77.001 54.5609H85.4112V78.741C85.4169 79.2731 85.6335 79.7815 86.0139 80.1557C86.3942 80.5299 86.9077 80.7398 87.4427 80.7398H93.0131C93.277 80.7398 93.5383 80.6881 93.7822 80.5876C94.026 80.4872 94.2475 80.3399 94.4342 80.1543C94.6208 79.9687 94.7688 79.7484 94.8698 79.5059C94.9708 79.2634 95.0228 79.0035 95.0228 78.741V54.5609H103.433C103.968 54.5551 104.479 54.3398 104.855 53.9615C105.232 53.5832 105.443 53.0725 105.443 52.5404V49.0861C105.467 48.8094 105.433 48.5307 105.343 48.2678C105.253 48.0048 105.109 47.7635 104.92 47.559C104.73 47.3546 104.501 47.1917 104.245 47.0805C103.989 46.9694 103.712 46.9125 103.433 46.9136H77.001C76.7371 46.9136 76.4757 46.9653 76.2319 47.0657C75.9881 47.1662 75.7665 47.3134 75.5799 47.499C75.3933 47.6846 75.2453 47.9049 75.1443 48.1474C75.0433 48.3899 74.9913 48.6498 74.9913 48.9123V52.4752C74.9826 52.7442 75.0279 53.0122 75.1247 53.2634C75.2215 53.5147 75.3678 53.7442 75.555 53.9385C75.7422 54.1328 75.9666 54.2879 76.2149 54.3948C76.4632 54.5016 76.7304 54.5581 77.001 54.5609V54.5609Z" fill="#D32679"/>
<path d="M139.169 51.259C137.459 49.6416 135.438 48.3852 133.227 47.5657C128.355 45.8279 123.026 45.8279 118.154 47.5657C115.931 48.3864 113.895 49.6423 112.169 51.259C110.481 52.8236 109.135 54.7167 108.215 56.8206C106.776 60.0893 106.384 63.7191 107.091 67.2171C107.798 70.7152 109.571 73.912 112.169 76.3733C113.901 77.9826 115.935 79.2375 118.154 80.0666C123.026 81.8044 128.355 81.8044 133.227 80.0666C135.428 79.2364 137.445 77.9896 139.169 76.395C140.88 74.772 142.243 72.8202 143.174 70.658C144.105 68.4959 144.585 66.1682 144.585 63.8161C144.585 61.464 144.105 59.1364 143.174 56.9742C142.243 54.8121 140.88 52.8603 139.169 51.2372V51.259ZM134.144 67.7701C133.704 68.9014 133.043 69.935 132.2 70.8117C131.384 71.6629 130.393 72.3297 129.295 72.7669C128.142 73.2254 126.91 73.4542 125.669 73.4404C124.434 73.4542 123.209 73.2253 122.064 72.7669C120.963 72.3352 119.971 71.6676 119.159 70.8117C118.306 69.9342 117.644 68.8914 117.215 67.7484C116.282 65.1866 116.282 62.3805 117.215 59.8187C117.65 58.6848 118.311 57.6502 119.159 56.7772C119.977 55.928 120.967 55.2616 122.064 54.8219C123.209 54.3635 124.434 54.1346 125.669 54.1484C126.91 54.1346 128.142 54.3634 129.295 54.8219C130.389 55.2667 131.378 55.9325 132.2 56.7772C133.041 57.6559 133.701 58.689 134.144 59.8187C135.077 62.3805 135.077 65.1866 134.144 67.7484V67.7701Z" fill="#D32679"/>
<path d="M20.2023 32.2275C19.3958 32.4304 18.5656 32.5254 17.7338 32.5099C16.2018 32.4677 14.6849 32.1968 13.2339 31.7061C12.4855 31.478 11.7554 31.1948 11.0494 30.8588C10.8047 30.7425 10.5391 30.6762 10.2682 30.6637C9.99735 30.6511 9.7267 30.6927 9.47221 30.7858C9.21773 30.879 8.98458 31.0218 8.78649 31.206C8.5884 31.3901 8.42938 31.6119 8.31882 31.8581L7.51057 33.6179C7.2957 34.1083 7.28288 34.6629 7.47487 35.1626C7.66686 35.6623 8.04832 36.0672 8.53726 36.2901C9.53007 36.741 10.5607 37.1045 11.6174 37.3763C13.6257 37.9203 15.6961 38.2051 17.7775 38.2236C20.0193 38.3051 22.2529 37.9126 24.3309 37.0722C25.8811 36.4181 27.2193 35.3504 28.1974 33.9872C29.0401 32.7497 29.4891 31.2888 29.4862 29.7942C29.5467 28.685 29.307 27.58 28.7922 26.5942C28.2774 25.6084 27.5062 24.7779 26.5591 24.1891C25.6542 23.6154 24.6774 23.1625 23.6537 22.8422C22.5833 22.5163 21.4693 22.2339 20.4644 22.0166L17.5372 21.3649C16.7703 21.2046 16.0332 20.9261 15.3528 20.5393C15.1075 20.4036 14.9032 20.2052 14.7611 19.9645C14.619 19.7238 14.5442 19.4497 14.5445 19.1706C14.5391 18.7364 14.6858 18.314 14.9596 17.9757C15.3094 17.5727 15.7741 17.2848 16.2921 17.1502C17.0991 16.9088 17.9401 16.7988 18.7824 16.8243C20.0017 16.8395 21.2136 17.0148 22.3867 17.3457C23.0249 17.5273 23.6521 17.7449 24.2654 17.9974C24.7421 18.1545 25.2603 18.1304 25.7202 17.9298C26.1801 17.7292 26.5489 17.3663 26.7557 16.9112L27.4984 15.1297C27.6005 14.8804 27.6516 14.6133 27.6485 14.3441C27.6454 14.0749 27.5882 13.8091 27.4804 13.5621C27.3725 13.3152 27.2161 13.0922 27.0204 12.9063C26.8247 12.7203 26.5936 12.5751 26.3406 12.4792C25.5106 12.1466 24.6562 11.8779 23.7848 11.6754C22.1142 11.3018 20.4073 11.1123 18.695 11.1105C16.49 11.0476 14.2959 11.4396 12.2508 12.262C10.7244 12.9058 9.4137 13.9682 8.47173 15.3252C7.58828 16.6003 7.13679 18.1225 7.1829 19.6703C7.15344 20.8366 7.43213 21.9902 7.99115 23.016C8.5381 23.9004 9.28637 24.6445 10.1756 25.1885C11.0795 25.7694 12.0564 26.2296 13.0809 26.5572C14.1134 26.884 15.1636 27.1523 16.2266 27.361L19.1319 28.0345C19.9014 28.2083 20.6386 28.5016 21.3164 28.9035C21.5666 29.0445 21.7739 29.2502 21.9161 29.4988C22.0584 29.7474 22.1305 30.0297 22.1246 30.3156C22.1339 30.7177 21.985 31.1075 21.7096 31.4019C21.2977 31.8159 20.7742 32.1026 20.2023 32.2275Z" fill="#FEC108"/>
<path d="M44.9088 38.2239C46.5559 38.3201 48.2058 38.0891 49.7622 37.5446C51.3187 37 52.7505 36.1527 53.9743 35.052C55.1251 33.8713 56.0181 32.4667 56.597 30.9263C57.1759 29.386 57.4283 27.7432 57.3383 26.1012V13.6527C57.3425 13.3731 57.2876 13.0958 57.1772 12.8386C57.0668 12.5814 56.9034 12.3502 56.6975 12.1597C56.4916 11.9693 56.2479 11.824 55.982 11.7331C55.7161 11.6423 55.434 11.6079 55.1539 11.6322H51.9646C51.697 11.6293 51.4315 11.6796 51.1837 11.7801C50.9359 11.8806 50.7108 12.0293 50.5215 12.2175C50.3323 12.4057 50.1828 12.6296 50.0817 12.876C49.9807 13.1225 49.9301 13.3865 49.933 13.6527V25.8622C50.0898 27.574 49.6248 29.285 48.6224 30.6852C48.1541 31.1716 47.5857 31.5516 46.9561 31.7991C46.3264 32.0466 45.6504 32.1557 44.9743 32.1191C44.2987 32.1515 43.624 32.0403 42.9949 31.7931C42.3659 31.5458 41.7971 31.1682 41.3263 30.6852C40.3161 29.2879 39.8433 27.5767 39.9937 25.8622V13.6527C39.9967 13.3865 39.9461 13.1225 39.8451 12.876C39.744 12.6296 39.5945 12.4057 39.4052 12.2175C39.216 12.0293 38.9909 11.8806 38.7431 11.7801C38.4953 11.6796 38.2298 11.6293 37.9622 11.6322H34.5981C34.3324 11.6322 34.0692 11.6846 33.824 11.7864C33.5787 11.8882 33.3562 12.0374 33.1693 12.2253C32.9824 12.4132 32.8348 12.6361 32.7351 12.8811C32.6354 13.1261 32.5855 13.3884 32.5884 13.6527V26.1012C32.481 27.739 32.7146 29.3813 33.2747 30.9252C33.8348 32.4691 34.7092 33.8814 35.8433 35.0737C37.0688 36.1705 38.5014 37.0139 40.0578 37.5547C41.6141 38.0955 43.2631 38.323 44.9088 38.2239V38.2239Z" fill="#FEC108"/>
<path d="M69.682 30.9022H74.2476C76.3761 30.9566 78.4915 30.5565 80.4514 29.7291C82.1201 29.043 83.5377 27.8655 84.5139 26.3548C85.4902 24.8441 85.9782 23.0725 85.9126 21.278C85.9543 19.4607 85.4607 17.6709 84.4927 16.1291C83.5017 14.6465 82.0972 13.4837 80.4514 12.7834C78.4865 11.9747 76.3735 11.5826 74.2476 11.632H64.2864C63.7476 11.632 63.2309 11.8448 62.8499 12.2237C62.4689 12.6026 62.2549 13.1165 62.2549 13.6524V35.7035C62.2549 36.2394 62.4689 36.7533 62.8499 37.1322C63.2309 37.5111 63.7476 37.724 64.2864 37.724H67.6505C68.1893 37.724 68.706 37.5111 69.087 37.1322C69.468 36.7533 69.682 36.2394 69.682 35.7035V30.9022ZM77.2621 18.4537C77.6533 18.8099 77.96 19.248 78.1602 19.7364C78.3604 20.2248 78.4491 20.7513 78.4199 21.278C78.4459 21.801 78.3556 22.3233 78.1555 22.8077C77.9554 23.2921 77.6503 23.7267 77.2621 24.0805C76.274 24.8237 75.0455 25.1794 73.8107 25.0799H69.682V17.4543H73.8107C75.0455 17.3548 76.274 17.7105 77.2621 18.4537V18.4537Z" fill="#FEC108"/>
<path d="M108.543 32.0103H96.8565V27.3611H106.468C107.007 27.3611 107.524 27.1483 107.905 26.7694C108.286 26.3905 108.5 25.8766 108.5 25.3407V23.8634C108.503 23.5972 108.452 23.3332 108.351 23.0868C108.25 22.8403 108.1 22.6164 107.911 22.4282C107.722 22.24 107.497 22.0913 107.249 21.9908C107.001 21.8903 106.736 21.84 106.468 21.8429H96.8565V17.4979H108.063C108.596 17.4979 109.107 17.2873 109.484 16.9125C109.861 16.5376 110.072 16.0293 110.072 15.4992V13.6525C110.075 13.3882 110.026 13.126 109.926 12.881C109.826 12.636 109.679 12.4131 109.492 12.2252C109.305 12.0372 109.082 11.8881 108.837 11.7863C108.592 11.6845 108.329 11.6321 108.063 11.6321H91.5264C91.2607 11.6321 90.9975 11.6845 90.7523 11.7863C90.507 11.8881 90.2845 12.0372 90.0976 12.2252C89.9107 12.4131 89.7631 12.636 89.6634 12.881C89.5637 13.126 89.5138 13.3882 89.5167 13.6525V35.7036C89.5167 36.2357 89.7277 36.7464 90.104 37.1247C90.4803 37.503 90.9914 37.7184 91.5264 37.7241H108.543C109.082 37.7241 109.599 37.5112 109.98 37.1323C110.361 36.7534 110.575 36.2395 110.575 35.7036V34.0308C110.575 33.4949 110.361 32.981 109.98 32.6021C109.599 32.2232 109.082 32.0103 108.543 32.0103Z" fill="#FEC108"/>
<path d="M122.109 30.7937H126.15L130.322 36.8333C130.503 37.1069 130.75 37.3316 131.039 37.487C131.329 37.6425 131.653 37.724 131.983 37.7241H135.019C135.389 37.7224 135.752 37.6202 136.068 37.4286C136.384 37.2369 136.641 36.9631 136.812 36.6366C136.983 36.3101 137.061 35.9434 137.037 35.576C137.014 35.2087 136.89 34.8546 136.679 34.5522L133.184 29.5337C134.769 28.8264 136.106 27.6653 137.024 26.1986C137.943 24.732 138.4 23.0265 138.339 21.2998C138.381 19.4825 137.887 17.6928 136.919 16.1509C135.928 14.6683 134.524 13.5055 132.878 12.8052C130.913 11.9966 128.8 11.6044 126.674 11.6538H116.713C116.174 11.6538 115.658 11.8667 115.277 12.2456C114.896 12.6245 114.682 13.1384 114.682 13.6743V35.7036C114.682 36.2395 114.896 36.7534 115.277 37.1323C115.658 37.5112 116.174 37.7241 116.713 37.7241H120.077C120.616 37.7241 121.133 37.5112 121.514 37.1323C121.895 36.7534 122.109 36.2395 122.109 35.7036V30.7937ZM129.689 18.4538C130.08 18.81 130.387 19.2481 130.587 19.7365C130.787 20.2249 130.876 20.7514 130.847 21.2781C130.873 21.8011 130.782 22.3235 130.582 22.8079C130.382 23.2923 130.077 23.7268 129.689 24.0806C128.703 24.8276 127.473 25.1837 126.237 25.08H122.109V17.4544H126.237C127.473 17.3507 128.703 17.7069 129.689 18.4538V18.4538Z" fill="#FEC108"/>
<path d="M14.3047 44.5238H8.73431C8.19931 44.5295 7.68817 44.7449 7.31189 45.1232C6.93561 45.5015 6.72458 46.0121 6.72461 46.5443V76.2861C6.72458 76.8182 6.93561 77.3288 7.31189 77.7071C7.68817 78.0854 8.19931 78.3008 8.73431 78.3065H30.5789C31.1139 78.3008 31.6251 78.0854 32.0013 77.7071C32.3776 77.3288 32.5886 76.8182 32.5886 76.2861V72.7231C32.5886 72.4607 32.5366 72.2008 32.4356 71.9583C32.3346 71.7158 32.1866 71.4954 32 71.3098C31.8134 71.1242 31.5918 70.977 31.348 70.8766C31.1042 70.7761 30.8428 70.7244 30.5789 70.7244H16.3362V46.5443C16.3362 46.0084 16.1222 45.4945 15.7412 45.1156C15.3602 44.7367 14.8435 44.5238 14.3047 44.5238Z" fill="#FEC108"/>
<path d="M66.4039 48.8473C64.6874 47.2388 62.6681 45.9836 60.4621 45.1541C55.5898 43.4163 50.2617 43.4163 45.3894 45.1541C43.1676 45.978 41.1329 47.2335 39.4039 48.8473C37.7368 50.42 36.4067 52.3119 35.4938 54.409C34.5565 56.6235 34.0737 59.0019 34.0737 61.4045C34.0737 63.8072 34.5565 66.1856 35.4938 68.4C36.4138 70.5105 37.7595 72.4109 39.4476 73.9834C41.1766 75.5973 43.2113 76.8528 45.433 77.6767C50.3054 79.4145 55.6335 79.4145 60.5058 77.6767C62.7108 76.8552 64.7302 75.6073 66.4476 74.0052C68.1783 72.3944 69.5506 70.4411 70.4762 68.2708C71.4017 66.1006 71.8599 63.7616 71.8213 61.4045C71.8535 59.0032 71.3849 56.6212 70.4451 54.409C69.4698 52.3141 68.0977 50.4258 66.4039 48.8473V48.8473ZM61.3796 65.3802C60.9576 66.5073 60.3279 67.5462 59.5228 68.4435C58.7008 69.2881 57.7115 69.954 56.6175 70.3988C55.4617 70.8468 54.2317 71.0753 52.9913 71.0722C51.7579 71.0756 50.535 70.8471 49.3869 70.3988C48.2877 69.9516 47.2917 69.2863 46.4597 68.4435C45.6304 67.5522 44.9781 66.5128 44.5374 65.3802C44.0437 64.1131 43.7989 62.7634 43.8165 61.4045C43.7945 60.0453 44.0394 58.6948 44.5374 57.4288C44.9782 56.3028 45.6306 55.2705 46.4597 54.3873C47.2917 53.5445 48.2877 52.8792 49.3869 52.432C50.5281 51.9863 51.7434 51.7578 52.9694 51.7585C54.2099 51.7555 55.4399 51.9839 56.5956 52.432C57.6897 52.8768 58.679 53.5426 59.501 54.3873C60.3371 55.2693 60.9969 56.3015 61.4451 57.4288C61.9258 58.699 62.1629 60.0475 62.1442 61.4045C62.1374 62.7653 61.8782 64.1131 61.3796 65.3802V65.3802Z" fill="#FEC108"/>
<path d="M75.1658 52.1059H83.5542V76.2861C83.5541 76.8182 83.7652 77.3288 84.1414 77.7071C84.5177 78.0854 85.0288 78.3008 85.5638 78.3065H91.1342C91.6692 78.3008 92.1804 78.0854 92.5566 77.7071C92.9329 77.3288 93.144 76.8182 93.1439 76.2861V52.1059H101.51C102.049 52.1059 102.566 51.893 102.947 51.5141C103.328 51.1352 103.542 50.6213 103.542 50.0855V46.5443C103.542 46.0084 103.328 45.4945 102.947 45.1156C102.566 44.7367 102.049 44.5238 101.51 44.5238H75.1658C74.627 44.5238 74.1103 44.7367 73.7293 45.1156C73.3483 45.4945 73.1343 46.0084 73.1343 46.5443V50.0855C73.1343 50.3508 73.1868 50.6135 73.2889 50.8587C73.391 51.1038 73.5407 51.3265 73.7293 51.5141C73.918 51.7017 74.1419 51.8506 74.3884 51.9521C74.6349 52.0536 74.899 52.1059 75.1658 52.1059Z" fill="#FEC108"/>
<path d="M137.268 48.8475C135.552 47.239 133.532 45.9838 131.326 45.1542C126.462 43.4162 121.14 43.4162 116.275 45.1542C114.047 45.9777 112.005 47.2331 110.268 48.8475C108.56 50.4703 107.2 52.4207 106.271 54.5809C105.342 56.7411 104.863 59.0661 104.863 61.4156C104.863 63.765 105.342 66.0901 106.271 68.2502C107.2 70.4104 108.56 72.3608 110.268 73.9836C112.018 75.6029 114.075 76.8586 116.319 77.6769C121.184 79.4149 126.505 79.4149 131.37 77.6769C133.575 76.8553 135.595 75.6075 137.312 74.0053C139.04 72.3915 140.412 70.4381 141.341 68.2689C142.27 66.0997 142.735 63.7622 142.707 61.4047C142.733 58.9974 142.241 56.6125 141.266 54.4092C140.311 52.3135 138.953 50.424 137.268 48.8475V48.8475ZM132.244 65.3804C131.804 66.5184 131.143 67.5592 130.3 68.4437C129.482 69.2928 128.491 69.9593 127.394 70.3989C126.246 70.8473 125.023 71.0758 123.79 71.0724C122.55 71.0754 121.32 70.847 120.164 70.3989C119.07 69.9541 118.08 69.2883 117.258 68.4437C116.422 67.5535 115.763 66.5142 115.314 65.3804C114.838 64.109 114.601 62.7614 114.615 61.4047C114.597 60.0477 114.834 58.6991 115.314 57.429C115.763 56.3017 116.422 55.2695 117.258 54.3874C118.08 53.5428 119.07 52.877 120.164 52.4322C121.32 51.9841 122.55 51.7557 123.79 51.7587C125.023 51.7553 126.246 51.9838 127.394 52.4322C128.491 52.8718 129.482 53.5383 130.3 54.3874C131.143 55.2641 131.804 56.2977 132.244 57.429C132.734 58.6964 132.972 60.0469 132.943 61.4047C132.967 62.7622 132.73 64.1118 132.244 65.3804V65.3804Z" fill="#FEC108"/>
<path d="M21.0993 33.2486C20.2872 33.4613 19.4485 33.5564 18.6091 33.5311C17.0502 33.5283 15.5018 33.2789 14.0217 32.7924C13.2746 32.5608 12.5447 32.2777 11.8372 31.9451C11.5925 31.8289 11.3269 31.7625 11.0561 31.75C10.7852 31.7375 10.5145 31.779 10.2601 31.8721C10.0056 31.9653 9.77242 32.1081 9.57433 32.2923C9.37624 32.4765 9.21722 32.6982 9.10666 32.9445L8.32025 34.7259C8.10189 35.2052 8.08015 35.7503 8.25964 36.2453C8.43914 36.7403 8.80572 37.1461 9.28142 37.3764C10.2831 37.824 11.3207 38.1874 12.3833 38.4627C14.4054 39.0077 16.4923 39.2781 18.5872 39.2665C20.8288 39.346 23.0621 38.9536 25.1406 38.1151C26.6778 37.4689 27.9968 36.3983 28.9416 35.0301C29.7969 33.7987 30.2472 32.3337 30.2304 30.8371C30.278 29.6221 29.9829 28.418 29.3784 27.3611C28.8348 26.4741 28.0858 25.7293 27.194 25.1886C26.2822 24.6275 25.307 24.1754 24.2887 23.8416C23.2183 23.5157 22.1042 23.2333 21.0993 23.016L18.1722 22.3643C17.4029 22.2118 16.6647 21.9328 15.9877 21.5387C15.7442 21.4066 15.5407 21.212 15.3986 20.9751C15.2564 20.7381 15.1807 20.4676 15.1795 20.1918C15.255 19.7432 15.487 19.3356 15.8348 19.0403C16.1976 18.6374 16.6669 18.3438 17.1892 18.193C17.9537 17.9629 18.7497 17.8529 19.5484 17.8672C20.7539 17.8745 21.9525 18.05 23.109 18.3886C23.7508 18.5495 24.379 18.7601 24.9877 19.0186C25.2327 19.1216 25.4959 19.1752 25.762 19.1762C26.028 19.1773 26.2916 19.1258 26.5375 19.0248C26.7834 18.9237 27.0066 18.7751 27.1943 18.5876C27.382 18.4001 27.5304 18.1773 27.6309 17.9323L28.3736 16.1726C28.4767 15.9231 28.5291 15.6558 28.5277 15.386C28.5264 15.1163 28.4713 14.8495 28.3657 14.601C28.2601 14.3526 28.106 14.1274 27.9124 13.9385C27.7188 13.7496 27.4895 13.6007 27.2377 13.5004C26.3677 13.1814 25.4774 12.9201 24.5726 12.7183C22.9397 12.3405 21.2686 12.151 19.5921 12.1534C17.3504 12.0726 15.1169 12.4651 13.0387 13.3049C11.5354 13.9665 10.238 15.0168 9.28142 16.3464C8.41145 17.6279 7.96128 19.1456 7.99259 20.6914C7.94648 21.8898 8.23372 23.0776 8.82268 24.124C9.37217 25.0064 10.1199 25.7501 11.0071 26.2966C11.9165 26.8621 12.8923 27.3144 13.9125 27.6435C14.961 27.9911 16.0969 28.2735 17.0799 28.5125C18.0629 28.7515 19.1115 28.947 19.9853 29.186C20.7547 29.3491 21.4924 29.6352 22.1697 30.0333C22.364 30.1699 22.526 30.3469 22.6445 30.5521C22.763 30.7572 22.8351 30.9856 22.8559 31.2213C22.8767 31.457 22.8456 31.6944 22.7648 31.9169C22.6841 32.1394 22.5555 32.3418 22.3882 32.51C22.0297 32.8624 21.5857 33.1169 21.0993 33.2486Z" fill="white"/>
<path d="M45.7175 39.2664C47.368 39.3604 49.0207 39.1243 50.5778 38.572C52.1349 38.0197 53.5649 37.1625 54.7831 36.051C55.9128 34.8557 56.7844 33.4429 57.3442 31.8998C57.904 30.3566 58.1401 28.7158 58.0379 27.0785V14.6734C58.0379 14.1375 57.8239 13.6236 57.4429 13.2447C57.0619 12.8658 56.5451 12.653 56.0063 12.653H52.7515C52.2127 12.653 51.696 12.8658 51.315 13.2447C50.934 13.6236 50.72 14.1375 50.72 14.6734V26.9047C50.8773 28.6098 50.412 30.3141 49.4093 31.706C48.9473 32.1958 48.3836 32.5797 47.7574 32.831C47.1312 33.0824 46.4575 33.1952 45.7831 33.1616C45.091 33.2083 44.3971 33.1021 43.7512 32.8504C43.1054 32.5987 42.5236 32.2079 42.0477 31.706C41.0281 30.3214 40.554 28.6133 40.7151 26.9047V14.6734C40.7151 14.1375 40.5011 13.6236 40.1201 13.2447C39.7391 12.8658 39.2224 12.653 38.6836 12.653H35.4943C34.9555 12.653 34.4387 12.8658 34.0578 13.2447C33.6768 13.6236 33.4627 14.1375 33.4627 14.6734V27.122C33.355 28.7461 33.5802 30.375 34.1247 31.9099C34.6692 33.4448 35.5216 34.8537 36.6302 36.051C37.8517 37.1642 39.2853 38.0223 40.8462 38.5746C42.4071 39.1269 44.0636 39.3621 45.7175 39.2664Z" fill="white"/>
<path d="M70.4471 31.9234H75.0126C77.1922 31.9977 79.3617 31.5973 81.3694 30.7502C82.9714 30.0149 84.3282 28.8389 85.2796 27.3611C86.2537 25.8379 86.7482 24.0601 86.6994 22.2556C86.7546 20.4299 86.2602 18.6294 85.2796 17.085C84.3171 15.6433 82.9604 14.5051 81.3694 13.8045C79.4044 12.9958 77.2915 12.6037 75.1655 12.6531H65.0951C64.5563 12.6531 64.0396 12.8659 63.6586 13.2448C63.2776 13.6238 63.0636 14.1377 63.0636 14.6735V36.7246C63.0607 36.9908 63.1112 37.2548 63.2123 37.5012C63.3133 37.7477 63.4629 37.9716 63.6521 38.1598C63.8413 38.348 64.0665 38.4967 64.3143 38.5972C64.5621 38.6977 64.8275 38.748 65.0951 38.7451H68.4592C68.998 38.7451 69.5147 38.5322 69.8957 38.1533C70.2767 37.7744 70.4908 37.2605 70.4908 36.7246L70.4471 31.9234ZM78.0271 19.4748C78.4188 19.8352 78.7256 20.2772 78.9257 20.7692C79.1259 21.2611 79.2144 21.7909 79.1849 22.3208C79.2295 22.8515 79.1523 23.3853 78.9594 23.882C78.7664 24.3788 78.4626 24.8255 78.0708 25.1885C77.0772 25.9391 75.8418 26.3023 74.5975 26.2096H70.4471V18.4754H74.5975C75.8391 18.3766 77.0742 18.732 78.0708 19.4748H78.0271Z" fill="white"/>
<path d="M109.33 33.0529H97.6432V28.2734H107.277C107.816 28.2734 108.332 28.0605 108.713 27.6816C109.094 27.3027 109.308 26.7888 109.308 26.2529V24.7756C109.308 24.2398 109.094 23.7259 108.713 23.347C108.332 22.9681 107.816 22.7552 107.277 22.7552H97.6432V18.4101H108.85C109.388 18.4101 109.905 18.1973 110.286 17.8184C110.667 17.4395 110.881 16.9255 110.881 16.3897V14.6734C110.881 14.1375 110.667 13.6236 110.286 13.2447C109.905 12.8658 109.388 12.653 108.85 12.653H92.2913C91.7525 12.653 91.2358 12.8658 90.8548 13.2447C90.4738 13.6236 90.2598 14.1375 90.2598 14.6734V36.7245C90.2598 37.2604 90.4738 37.7743 90.8548 38.1532C91.2358 38.5321 91.7525 38.745 92.2913 38.745H109.33C109.598 38.7479 109.863 38.6976 110.111 38.5971C110.359 38.4966 110.584 38.3479 110.773 38.1597C110.962 37.9715 111.112 37.7476 111.213 37.5011C111.314 37.2547 111.365 36.9906 111.362 36.7245V35.0517C111.362 34.7874 111.309 34.5257 111.207 34.2817C111.104 34.0378 110.954 33.8165 110.765 33.6306C110.576 33.4447 110.352 33.298 110.106 33.1988C109.86 33.0996 109.596 33.0501 109.33 33.0529V33.0529Z" fill="white"/>
<path d="M122.873 31.8147H126.915L131.065 37.8761C131.253 38.146 131.505 38.3662 131.798 38.5176C132.091 38.669 132.417 38.7471 132.747 38.7451H135.762C136.13 38.7447 136.491 38.6446 136.807 38.4556C137.123 38.2667 137.381 37.9959 137.554 37.6722C137.726 37.3486 137.807 36.9843 137.788 36.6184C137.769 36.2525 137.65 35.8987 137.444 35.5949L133.949 30.5329C135.526 29.8238 136.856 28.6646 137.77 27.2026C138.684 25.7405 139.141 24.0414 139.082 22.3208C139.137 20.4951 138.643 18.6946 137.662 17.1502C136.721 15.6907 135.379 14.5298 133.796 13.8045C131.831 12.9958 129.718 12.6037 127.592 12.6531H117.521C116.983 12.6531 116.466 12.8659 116.085 13.2448C115.704 13.6238 115.49 14.1377 115.49 14.6735V36.7246C115.487 36.9908 115.537 37.2548 115.639 37.5012C115.74 37.7477 115.889 37.9716 116.078 38.1598C116.268 38.348 116.493 38.4967 116.741 38.5972C116.988 38.6977 117.254 38.748 117.521 38.7451H120.885C121.424 38.7451 121.941 38.5322 122.322 38.1533C122.703 37.7744 122.917 37.2605 122.917 36.7246L122.873 31.8147ZM130.453 19.4748C130.845 19.8352 131.152 20.2772 131.352 20.7692C131.552 21.2611 131.641 21.7909 131.611 22.3208C131.656 22.8515 131.579 23.3853 131.386 23.882C131.193 24.3788 130.889 24.8255 130.497 25.1885C129.503 25.9391 128.268 26.3023 127.024 26.2096H122.873V18.4754H127.024C128.265 18.3766 129.5 18.732 130.497 19.4748H130.453Z" fill="white"/>
<path d="M15.1146 45.5668H9.54424C9.00921 45.5667 8.49576 45.7766 8.11539 46.1508C7.73502 46.5251 7.51845 47.0334 7.5127 47.5655V77.3291C7.51845 77.8611 7.73502 78.3695 8.11539 78.7437C8.49576 79.1179 9.00921 79.3278 9.54424 79.3278H31.3888C31.9066 79.3054 32.3956 79.0849 32.7538 78.7125C33.112 78.3401 33.3117 77.8444 33.3112 77.3291V73.7661C33.3112 73.234 33.1002 72.7234 32.7239 72.3451C32.3476 71.9668 31.8365 71.7514 31.3015 71.7457H17.1243V47.5655C17.1243 47.303 17.0723 47.0431 16.9713 46.8006C16.8703 46.5581 16.7223 46.3378 16.5357 46.1522C16.3491 45.9666 16.1275 45.8194 15.8837 45.7189C15.6399 45.6185 15.3785 45.5668 15.1146 45.5668V45.5668Z" fill="white"/>
<path d="M67.1903 49.8683C65.4739 48.2597 63.4546 47.0045 61.2486 46.175C58.8389 45.2817 56.2837 44.8398 53.7122 44.8715C51.1412 44.8452 48.587 45.287 46.1758 46.175C43.9566 47.0041 41.9229 48.259 40.1904 49.8683C37.6403 52.3601 35.9003 55.5553 35.1955 59.041C34.4906 62.5266 34.8533 66.1425 36.2365 69.421C37.157 71.5249 38.5029 73.418 40.1904 74.9826C41.9172 76.5993 43.9525 77.8551 46.1758 78.6759C48.587 79.5639 51.1412 80.0057 53.7122 79.9794C56.2837 80.0111 58.8389 79.5692 61.2486 78.6759C63.4536 77.8544 65.473 76.6065 67.1903 75.0044C68.8691 73.4322 70.2136 71.541 71.1442 69.4427C72.0954 67.228 72.5858 64.8446 72.5858 62.4363C72.5858 60.028 72.0954 57.6446 71.1442 55.4299C70.2006 53.339 68.8578 51.4502 67.1903 49.8683ZM62.1661 66.4663C61.7364 67.6094 61.0746 68.6521 60.2219 69.5296C59.4037 70.3787 58.4134 71.0452 57.3166 71.4849C54.991 72.3834 52.4115 72.3834 50.086 71.4849C48.992 71.0401 48.0027 70.3743 47.1807 69.5296C46.3351 68.6466 45.6743 67.6053 45.2365 66.4663C44.7624 65.2019 44.5255 63.8618 44.5375 62.5124C44.5187 61.1553 44.7558 59.8068 45.2365 58.5366C45.6799 57.4069 46.3402 56.3738 47.1807 55.4951C47.9912 54.6369 48.9836 53.969 50.086 53.5398C52.4043 52.6006 54.9927 52.5618 57.3384 53.4312C58.4436 53.8551 59.4372 54.5237 60.2437 55.3865C61.0915 56.2595 61.7528 57.2941 62.1879 58.428C62.6785 59.6955 62.9159 61.0459 62.8869 62.4037C62.917 63.7919 62.6721 65.1723 62.1661 66.4663V66.4663Z" fill="white"/>
<path d="M75.9521 53.1272H84.3623V77.3291C84.368 77.8611 84.5846 78.3695 84.965 78.7437C85.3453 79.1179 85.8588 79.3278 86.3938 79.3278H91.9642C92.4972 79.3278 93.0084 79.1172 93.3853 78.7424C93.7621 78.3675 93.9739 77.8592 93.9739 77.3291V53.1272H102.34C102.604 53.1272 102.866 53.0755 103.109 52.975C103.353 52.8746 103.575 52.7273 103.761 52.5417C103.948 52.3561 104.096 52.1358 104.197 51.8933C104.298 51.6508 104.35 51.3909 104.35 51.1284V47.5655C104.35 47.0354 104.138 46.527 103.761 46.1522C103.385 45.7774 102.873 45.5668 102.34 45.5668H75.9521C75.4191 45.5668 74.9079 45.7774 74.531 46.1522C74.1541 46.527 73.9424 47.0354 73.9424 47.5655V51.1284C73.9424 51.6585 74.1541 52.1669 74.531 52.5417C74.9079 52.9166 75.4191 53.1272 75.9521 53.1272V53.1272Z" fill="white"/>
<path d="M138.164 49.8685C136.447 48.2599 134.428 47.0047 132.222 46.1752C127.35 44.4374 122.022 44.4374 117.149 46.1752C114.93 47.0043 112.896 48.2592 111.164 49.8685C108.601 52.352 106.852 55.5477 106.146 59.0367C105.441 62.5257 105.812 66.1453 107.21 69.4212C108.13 71.5251 109.476 73.4182 111.164 74.9828C112.891 76.5995 114.926 77.8553 117.149 78.6761C122.022 80.4139 127.35 80.4139 132.222 78.6761C134.425 77.861 136.445 76.6206 138.164 75.0263C140.727 72.5427 142.476 69.347 143.181 65.858C143.887 62.369 143.516 58.7495 142.118 55.4736C141.179 53.3671 139.836 51.4632 138.164 49.8685ZM133.052 66.4665C132.614 67.6055 131.953 68.6467 131.108 69.5298C130.286 70.3744 129.297 71.0402 128.203 71.4851C127.05 71.9435 125.818 72.1723 124.576 72.1585C123.342 72.1723 122.117 71.9435 120.972 71.4851C119.875 71.0454 118.885 70.3789 118.067 69.5298C117.214 68.6523 116.552 67.6096 116.123 66.4665C115.638 65.205 115.401 63.8628 115.424 62.5125C115.395 61.1547 115.632 59.8043 116.123 58.5368C116.558 57.4029 117.219 56.3683 118.067 55.4953C118.873 54.6326 119.867 53.9639 120.972 53.54C122.117 53.0816 123.342 52.8528 124.576 52.8665C125.818 52.8527 127.05 53.0816 128.203 53.54C129.305 53.9692 130.297 54.6371 131.108 55.4953C131.948 56.374 132.609 57.4071 133.052 58.5368C133.54 59.7837 133.792 61.1095 133.795 62.4474C133.801 63.8214 133.549 65.1845 133.052 66.4665V66.4665Z" fill="white"/>
</svg>
