<svg width="61" height="46" viewBox="0 0 61 46" fill="none" xmlns="http://www.w3.org/2000/svg">
<path fill-rule="evenodd" clip-rule="evenodd" d="M0.920525 24.5222C0.172382 24.1163 -0.114141 23.1851 0.291766 22.429C0.697673 21.6729 1.62887 21.3944 2.38497 21.8003L14.4189 28.3028C15.1671 28.7087 15.4536 29.6399 15.0477 30.396C14.8726 30.7143 14.6099 30.9531 14.2995 31.0804L11.9278 32.1071C15.3024 33.683 20.4996 36.1344 22.7918 37.3601C25.1476 38.6255 27.1294 39.5408 28.6575 40.2492C29.3181 40.5516 29.8991 40.8222 30.4324 41.0848C31.1964 41.4589 31.5148 42.3901 31.1328 43.1542C30.7587 43.9182 29.8275 44.2366 29.0634 43.8546C28.6177 43.6317 28.0288 43.3611 27.3602 43.0507C25.8321 42.3424 23.8503 41.4271 21.3353 40.0741C18.0721 38.3231 8.6646 33.9855 7.5981 33.492C7.21607 33.3487 6.88975 33.0543 6.71465 32.6563C6.38038 31.8684 6.73853 30.961 7.52647 30.6268L10.145 29.4966L0.920525 24.5143L0.920525 24.5222Z" fill="#0A3716"/>
<path fill-rule="evenodd" clip-rule="evenodd" d="M2.3932 24.5224C1.64506 24.9283 0.705902 24.6497 0.292036 23.9016C-0.113871 23.1535 0.164693 22.2143 0.912835 21.8004L9.86667 16.9455L7.40735 15.6243C6.65921 15.2263 6.37269 14.2951 6.77063 13.539C6.93777 13.2286 7.19246 12.9978 7.48694 12.8625C7.51878 12.8466 17.8654 8.08713 21.3196 6.23269C23.1104 5.26966 24.4475 4.60906 25.5299 4.12356C26.6601 3.62214 27.5037 3.29583 28.2996 3.02523C29.1115 2.75462 29.9869 3.18441 30.2575 3.99623C30.5281 4.80008 30.0984 5.68352 29.2865 5.95413C28.5543 6.20085 27.7743 6.49534 26.7874 6.94104C25.7528 7.40266 24.4793 8.03141 22.7682 8.94669C20.3964 10.2201 14.9286 12.7909 11.5699 14.3588L13.7188 15.5128C14.0292 15.6481 14.2919 15.879 14.467 16.1973C14.8729 16.9455 14.5943 17.8846 13.8462 18.2905L2.37729 24.5144L2.3932 24.5224Z" fill="#0A3716"/>
<path fill-rule="evenodd" clip-rule="evenodd" d="M28.228 43.393C27.464 43.0189 27.1377 42.0957 27.5117 41.3236C27.8858 40.5516 28.809 40.2333 29.5811 40.6073C30.8863 41.2441 32.2712 41.7375 33.7038 42.0718C35.0966 42.3901 36.5611 42.5573 38.0733 42.5573C43.4297 42.5573 48.2846 40.3845 51.7945 36.8746C55.3044 33.3647 57.4772 28.5097 57.4772 23.1533C57.4772 17.7969 55.3044 12.942 51.7945 9.43206C48.2846 5.92215 43.4297 3.74936 38.0733 3.74936C36.3303 3.74936 34.6509 3.98017 33.0512 4.402C31.3957 4.83974 29.8357 5.49238 28.3952 6.32011C27.655 6.74194 26.7158 6.48725 26.294 5.75502C25.8722 5.01484 26.1269 4.07568 26.8591 3.65386C28.5384 2.68286 30.3531 1.92676 32.2632 1.41739C34.1256 0.923932 36.0676 0.653322 38.0653 0.653322C44.2813 0.653322 49.9003 3.16835 53.9753 7.24334C58.0503 11.3183 60.5653 16.9374 60.5653 23.1533C60.5653 29.3693 58.0503 34.9883 53.9753 39.0633C49.9003 43.1303 44.2813 45.6533 38.0653 45.6533C36.3382 45.6533 34.643 45.4543 33.0114 45.0803C31.332 44.6903 29.7243 44.1252 28.2201 43.393L28.228 43.393Z" fill="#0A3716"/>
<path fill-rule="evenodd" clip-rule="evenodd" d="M0.920525 24.5222C0.172382 24.1163 -0.114141 23.1851 0.291766 22.429C0.697673 21.6729 1.62887 21.3944 2.38497 21.8003L14.4189 28.3028C15.1671 28.7087 15.4536 29.6399 15.0477 30.396C14.8726 30.7143 14.6099 30.9531 14.2995 31.0804L11.9278 32.1071C15.3024 33.683 20.4996 36.1344 22.7918 37.3601C25.1476 38.6255 27.1294 39.5408 28.6575 40.2492C29.3181 40.5516 29.8991 40.8222 30.4324 41.0848C31.1964 41.4589 31.5148 42.3901 31.1328 43.1542C30.7587 43.9182 29.8275 44.2366 29.0634 43.8546C28.6177 43.6317 28.0288 43.3611 27.3602 43.0507C25.8321 42.3424 23.8503 41.4271 21.3353 40.0741C18.0721 38.3231 8.6646 33.9855 7.5981 33.492C7.21607 33.3487 6.88975 33.0543 6.71465 32.6563C6.38038 31.8684 6.73853 30.961 7.52647 30.6268L10.145 29.4966L0.920525 24.5143L0.920525 24.5222Z" fill="#0A3716"/>
<path fill-rule="evenodd" clip-rule="evenodd" d="M2.3932 24.5224C1.64506 24.9283 0.705902 24.6497 0.292036 23.9016C-0.113871 23.1535 0.164693 22.2143 0.912835 21.8004L9.86667 16.9455L7.40735 15.6243C6.65921 15.2263 6.37269 14.2951 6.77063 13.539C6.93777 13.2286 7.19246 12.9978 7.48694 12.8625C7.51878 12.8466 17.8654 8.08713 21.3196 6.23269C23.1104 5.26966 24.4475 4.60906 25.5299 4.12356C26.6601 3.62214 27.5037 3.29583 28.2996 3.02523C29.1115 2.75462 29.9869 3.18441 30.2575 3.99623C30.5281 4.80008 30.0984 5.68352 29.2865 5.95413C28.5543 6.20085 27.7743 6.49534 26.7874 6.94104C25.7528 7.40266 24.4793 8.03141 22.7682 8.94669C20.3964 10.2201 14.9286 12.7909 11.5699 14.3588L13.7188 15.5128C14.0292 15.6481 14.2919 15.879 14.467 16.1973C14.8729 16.9455 14.5943 17.8846 13.8462 18.2905L2.37729 24.5144L2.3932 24.5224Z" fill="#0A3716"/>
<path fill-rule="evenodd" clip-rule="evenodd" d="M28.228 43.393C27.464 43.0189 27.1377 42.0957 27.5117 41.3236C27.8858 40.5516 28.809 40.2333 29.5811 40.6073C30.8863 41.2441 32.2712 41.7375 33.7038 42.0718C35.0966 42.3901 36.5611 42.5573 38.0733 42.5573C43.4297 42.5573 48.2846 40.3845 51.7945 36.8746C55.3044 33.3647 57.4772 28.5097 57.4772 23.1533C57.4772 17.7969 55.3044 12.942 51.7945 9.43206C48.2846 5.92215 43.4297 3.74936 38.0733 3.74936C36.3303 3.74936 34.6509 3.98017 33.0512 4.402C31.3957 4.83974 29.8357 5.49238 28.3952 6.32011C27.655 6.74194 26.7158 6.48725 26.294 5.75502C25.8722 5.01484 26.1269 4.07568 26.8591 3.65386C28.5384 2.68286 30.3531 1.92676 32.2632 1.41739C34.1256 0.923932 36.0676 0.653322 38.0653 0.653322C44.2813 0.653322 49.9003 3.16835 53.9753 7.24334C58.0503 11.3183 60.5653 16.9374 60.5653 23.1533C60.5653 29.3693 58.0503 34.9883 53.9753 39.0633C49.9003 43.1303 44.2813 45.6533 38.0653 45.6533C36.3382 45.6533 34.643 45.4543 33.0114 45.0803C31.332 44.6903 29.7243 44.1252 28.2201 43.393L28.228 43.393Z" fill="#0A3716"/>
<path fill-rule="evenodd" clip-rule="evenodd" d="M41.4406 19.7557C42.34 19.7557 43.0722 20.4879 43.0722 21.3873C43.0722 22.2867 42.34 23.0189 41.4406 23.0189H32.9246C32.0252 23.0189 31.293 22.2867 31.293 21.3873C31.293 20.4879 32.0252 19.7557 32.9246 19.7557H41.4406Z" fill="#0A3716"/>
<path fill-rule="evenodd" clip-rule="evenodd" d="M41.4406 15.3301C42.34 15.3301 43.0722 16.0623 43.0722 16.9617C43.0722 17.861 42.34 18.5933 41.4406 18.5933H32.9246C32.0252 18.5933 31.293 17.861 31.293 16.9617C31.293 16.0623 32.0252 15.3301 32.9246 15.3301H41.4406Z" fill="#0A3716"/>
<path fill-rule="evenodd" clip-rule="evenodd" d="M35.5593 22.3021C35.5593 21.4027 36.2915 20.6705 37.1908 20.6705C38.0902 20.6705 38.8224 21.4027 38.8224 22.3021V30.277C38.8224 31.1763 38.0902 31.9086 37.1908 31.9086C36.2915 31.9086 35.5593 31.1763 35.5593 30.277V22.3021Z" fill="#0A3716"/>
<path fill-rule="evenodd" clip-rule="evenodd" d="M41.4406 19.7557C42.34 19.7557 43.0722 20.4879 43.0722 21.3873C43.0722 22.2867 42.34 23.0189 41.4406 23.0189H32.9246C32.0252 23.0189 31.293 22.2867 31.293 21.3873C31.293 20.4879 32.0252 19.7557 32.9246 19.7557H41.4406Z" fill="#0A3716"/>
<path fill-rule="evenodd" clip-rule="evenodd" d="M41.4406 15.3301C42.34 15.3301 43.0722 16.0623 43.0722 16.9617C43.0722 17.861 42.34 18.5933 41.4406 18.5933H32.9246C32.0252 18.5933 31.293 17.861 31.293 16.9617C31.293 16.0623 32.0252 15.3301 32.9246 15.3301H41.4406Z" fill="#0A3716"/>
<path fill-rule="evenodd" clip-rule="evenodd" d="M35.5593 22.3021C35.5593 21.4027 36.2915 20.6705 37.1908 20.6705C38.0902 20.6705 38.8224 21.4027 38.8224 22.3021V30.277C38.8224 31.1763 38.0902 31.9086 37.1908 31.9086C36.2915 31.9086 35.5593 31.1763 35.5593 30.277V22.3021Z" fill="#0A3716"/>
<path fill-rule="evenodd" clip-rule="evenodd" d="M37.5084 9.25424C33.6085 9.25424 30.0747 10.8381 27.5199 13.3929C24.965 15.9477 23.3812 19.4815 23.3812 23.3814C23.3812 27.2813 24.965 30.8151 27.5199 33.3699C30.0747 35.9247 33.6085 37.5086 37.5084 37.5086C41.4082 37.5086 44.942 35.9247 47.4968 33.3699C50.0517 30.8151 51.6355 27.2813 51.6355 23.3814C51.6355 19.4815 50.0517 15.9477 47.4968 13.3929C44.942 10.8381 41.4082 9.25424 37.5084 9.25424ZM25.3311 11.2042C28.4511 8.08427 32.7489 6.1582 37.5084 6.1582C42.2678 6.1582 46.5656 8.08427 49.6856 11.2042C52.8055 14.3241 54.7316 18.6299 54.7316 23.3814C54.7316 28.1329 52.8055 32.4387 49.6856 35.5586C46.5656 38.6785 42.2678 40.6046 37.5084 40.6046C32.7489 40.6046 28.4511 38.6785 25.3311 35.5586C22.2112 32.4467 20.2852 28.1409 20.2852 23.3814C20.2852 18.6219 22.2112 14.3241 25.3311 11.2042Z" fill="#0A3716"/>
</svg>
